<mxfile host="65bd71144e">
    <diagram name="Página-1" id="3oRAbKmRTNMW5dDMv224">
        <mxGraphModel dx="3839" dy="2557" grid="1" gridSize="1" guides="1" tooltips="1" connect="1" arrows="1" fold="1" page="1" pageScale="1" pageWidth="827" pageHeight="1169" math="0" shadow="0">
            <root>
                <mxCell id="0"/>
                <mxCell id="1" parent="0"/>
                <mxCell id="46" value="Modelo Conceitual" style="text;html=1;align=center;verticalAlign=middle;resizable=0;points=[];autosize=1;strokeColor=none;fillColor=none;fontSize=48;" parent="1" vertex="1">
                    <mxGeometry x="203" y="202" width="420" height="70" as="geometry"/>
                </mxCell>
                <mxCell id="47" value="Modelo Lógico" style="text;html=1;align=center;verticalAlign=middle;resizable=0;points=[];autosize=1;strokeColor=none;fillColor=none;fontSize=48;" parent="1" vertex="1">
                    <mxGeometry x="244" y="813" width="340" height="70" as="geometry"/>
                </mxCell>
                <mxCell id="48" value="Modelo Físico" style="text;html=1;align=center;verticalAlign=middle;resizable=0;points=[];autosize=1;strokeColor=none;fillColor=none;fontSize=48;" parent="1" vertex="1">
                    <mxGeometry x="253" y="1474" width="320" height="70" as="geometry"/>
                </mxCell>
                <mxCell id="202" value="Empresa" style="shape=table;startSize=30;container=1;collapsible=0;childLayout=tableLayout;fontStyle=1;align=center;shadow=1;labelBackgroundColor=none;" parent="1" vertex="1">
                    <mxGeometry x="-348" y="1651" width="283" height="257" as="geometry"/>
                </mxCell>
                <mxCell id="203" value="" style="shape=tableRow;horizontal=0;startSize=0;swimlaneHead=0;swimlaneBody=0;top=0;left=0;bottom=0;right=0;collapsible=0;dropTarget=0;fillColor=none;points=[[0,0.5],[1,0.5]];portConstraint=eastwest;shadow=1;labelBackgroundColor=none;strokeColor=#050505;fontColor=#000000;" parent="202" vertex="1">
                    <mxGeometry y="30" width="283" height="57" as="geometry"/>
                </mxCell>
                <mxCell id="204" value="IdEmpresa" style="shape=partialRectangle;html=1;whiteSpace=wrap;connectable=0;top=0;left=0;bottom=0;right=0;overflow=hidden;shadow=1;labelBackgroundColor=none;" parent="203" vertex="1">
                    <mxGeometry width="72" height="57" as="geometry">
                        <mxRectangle width="72" height="57" as="alternateBounds"/>
                    </mxGeometry>
                </mxCell>
                <mxCell id="205" value="Nome" style="shape=partialRectangle;html=1;whiteSpace=wrap;connectable=0;top=0;left=0;bottom=0;right=0;overflow=hidden;shadow=1;labelBackgroundColor=none;" parent="203" vertex="1">
                    <mxGeometry x="72" width="64" height="57" as="geometry">
                        <mxRectangle width="64" height="57" as="alternateBounds"/>
                    </mxGeometry>
                </mxCell>
                <mxCell id="215" value="CNPJ" style="shape=partialRectangle;html=1;whiteSpace=wrap;connectable=0;top=0;left=0;bottom=0;right=0;overflow=hidden;shadow=1;labelBackgroundColor=none;" parent="203" vertex="1">
                    <mxGeometry x="136" width="147" height="57" as="geometry">
                        <mxRectangle width="147" height="57" as="alternateBounds"/>
                    </mxGeometry>
                </mxCell>
                <mxCell id="207" value="" style="shape=tableRow;horizontal=0;startSize=0;swimlaneHead=0;swimlaneBody=0;top=0;left=0;bottom=0;right=0;collapsible=0;dropTarget=0;fillColor=none;points=[[0,0.5],[1,0.5]];portConstraint=eastwest;shadow=1;labelBackgroundColor=none;strokeColor=#050505;fontColor=#000000;" parent="202" vertex="1">
                    <mxGeometry y="87" width="283" height="56" as="geometry"/>
                </mxCell>
                <mxCell id="208" value="1" style="shape=partialRectangle;html=1;whiteSpace=wrap;connectable=0;top=0;left=0;bottom=0;right=0;overflow=hidden;shadow=1;labelBackgroundColor=none;fillColor=#eeeeee;strokeColor=#36393d;fontColor=#252323;" parent="207" vertex="1">
                    <mxGeometry width="72" height="56" as="geometry">
                        <mxRectangle width="72" height="56" as="alternateBounds"/>
                    </mxGeometry>
                </mxCell>
                <mxCell id="209" value="Hertz" style="shape=partialRectangle;html=1;whiteSpace=wrap;connectable=0;top=0;left=0;bottom=0;right=0;overflow=hidden;shadow=1;labelBackgroundColor=none;fillColor=#eeeeee;strokeColor=#36393d;fontColor=#252323;" parent="207" vertex="1">
                    <mxGeometry x="72" width="64" height="56" as="geometry">
                        <mxRectangle width="64" height="56" as="alternateBounds"/>
                    </mxGeometry>
                </mxCell>
                <mxCell id="216" value="12345678910" style="shape=partialRectangle;html=1;whiteSpace=wrap;connectable=0;top=0;left=0;bottom=0;right=0;overflow=hidden;shadow=1;labelBackgroundColor=none;fillColor=#eeeeee;strokeColor=#36393d;fontColor=#252323;" parent="207" vertex="1">
                    <mxGeometry x="136" width="147" height="56" as="geometry">
                        <mxRectangle width="147" height="56" as="alternateBounds"/>
                    </mxGeometry>
                </mxCell>
                <mxCell id="211" value="" style="shape=tableRow;horizontal=0;startSize=0;swimlaneHead=0;swimlaneBody=0;top=0;left=0;bottom=0;right=0;collapsible=0;dropTarget=0;fillColor=none;points=[[0,0.5],[1,0.5]];portConstraint=eastwest;shadow=1;labelBackgroundColor=none;strokeColor=#050505;fontColor=#000000;" parent="202" vertex="1">
                    <mxGeometry y="143" width="283" height="57" as="geometry"/>
                </mxCell>
                <mxCell id="212" value="2" style="shape=partialRectangle;html=1;whiteSpace=wrap;connectable=0;top=0;left=0;bottom=0;right=0;overflow=hidden;shadow=1;labelBackgroundColor=none;fillColor=#eeeeee;strokeColor=#36393d;fontColor=#252323;" parent="211" vertex="1">
                    <mxGeometry width="72" height="57" as="geometry">
                        <mxRectangle width="72" height="57" as="alternateBounds"/>
                    </mxGeometry>
                </mxCell>
                <mxCell id="213" value="Localiza" style="shape=partialRectangle;html=1;whiteSpace=wrap;connectable=0;top=0;left=0;bottom=0;right=0;overflow=hidden;shadow=1;labelBackgroundColor=none;fillColor=#eeeeee;strokeColor=#36393d;fontColor=#252323;" parent="211" vertex="1">
                    <mxGeometry x="72" width="64" height="57" as="geometry">
                        <mxRectangle width="64" height="57" as="alternateBounds"/>
                    </mxGeometry>
                </mxCell>
                <mxCell id="217" value="01987654321" style="shape=partialRectangle;html=1;whiteSpace=wrap;connectable=0;top=0;left=0;bottom=0;right=0;overflow=hidden;shadow=1;labelBackgroundColor=none;fillColor=#eeeeee;strokeColor=#36393d;fontColor=#252323;" parent="211" vertex="1">
                    <mxGeometry x="136" width="147" height="57" as="geometry">
                        <mxRectangle width="147" height="57" as="alternateBounds"/>
                    </mxGeometry>
                </mxCell>
                <mxCell id="436" style="shape=tableRow;horizontal=0;startSize=0;swimlaneHead=0;swimlaneBody=0;top=0;left=0;bottom=0;right=0;collapsible=0;dropTarget=0;fillColor=none;points=[[0,0.5],[1,0.5]];portConstraint=eastwest;shadow=1;labelBackgroundColor=none;strokeColor=#050505;fontColor=#000000;" parent="202" vertex="1">
                    <mxGeometry y="200" width="283" height="57" as="geometry"/>
                </mxCell>
                <mxCell id="437" value="3" style="shape=partialRectangle;html=1;whiteSpace=wrap;connectable=0;top=0;left=0;bottom=0;right=0;overflow=hidden;shadow=1;labelBackgroundColor=none;fillColor=#eeeeee;strokeColor=#36393d;fontColor=#252323;" parent="436" vertex="1">
                    <mxGeometry width="72" height="57" as="geometry">
                        <mxRectangle width="72" height="57" as="alternateBounds"/>
                    </mxGeometry>
                </mxCell>
                <mxCell id="438" value="Movida" style="shape=partialRectangle;html=1;whiteSpace=wrap;connectable=0;top=0;left=0;bottom=0;right=0;overflow=hidden;shadow=1;labelBackgroundColor=none;fillColor=#eeeeee;strokeColor=#36393d;fontColor=#252323;" parent="436" vertex="1">
                    <mxGeometry x="72" width="64" height="57" as="geometry">
                        <mxRectangle width="64" height="57" as="alternateBounds"/>
                    </mxGeometry>
                </mxCell>
                <mxCell id="439" value="35489786542" style="shape=partialRectangle;html=1;whiteSpace=wrap;connectable=0;top=0;left=0;bottom=0;right=0;overflow=hidden;shadow=1;labelBackgroundColor=none;fillColor=#eeeeee;strokeColor=#36393d;fontColor=#252323;" parent="436" vertex="1">
                    <mxGeometry x="136" width="147" height="57" as="geometry">
                        <mxRectangle width="147" height="57" as="alternateBounds"/>
                    </mxGeometry>
                </mxCell>
                <mxCell id="218" value="Aluguel" style="shape=table;startSize=30;container=1;collapsible=0;childLayout=tableLayout;fontStyle=1;align=center;shadow=1;labelBackgroundColor=none;" parent="1" vertex="1">
                    <mxGeometry x="385.5" y="1983" width="589" height="256" as="geometry"/>
                </mxCell>
                <mxCell id="219" value="" style="shape=tableRow;horizontal=0;startSize=0;swimlaneHead=0;swimlaneBody=0;top=0;left=0;bottom=0;right=0;collapsible=0;dropTarget=0;fillColor=none;points=[[0,0.5],[1,0.5]];portConstraint=eastwest;shadow=1;labelBackgroundColor=none;strokeColor=#050505;fontColor=#000000;" parent="218" vertex="1">
                    <mxGeometry y="30" width="589" height="57" as="geometry"/>
                </mxCell>
                <mxCell id="220" value="IdAluguel" style="shape=partialRectangle;html=1;whiteSpace=wrap;connectable=0;top=0;left=0;bottom=0;right=0;overflow=hidden;shadow=1;labelBackgroundColor=none;" parent="219" vertex="1">
                    <mxGeometry width="80" height="57" as="geometry">
                        <mxRectangle width="80" height="57" as="alternateBounds"/>
                    </mxGeometry>
                </mxCell>
                <mxCell id="222" value="IdVeiculo" style="shape=partialRectangle;html=1;whiteSpace=wrap;connectable=0;top=0;left=0;bottom=0;right=0;overflow=hidden;shadow=1;labelBackgroundColor=none;" parent="219" vertex="1">
                    <mxGeometry x="80" width="141" height="57" as="geometry">
                        <mxRectangle width="141" height="57" as="alternateBounds"/>
                    </mxGeometry>
                </mxCell>
                <mxCell id="433" value="IdCliente" style="shape=partialRectangle;html=1;whiteSpace=wrap;connectable=0;top=0;left=0;bottom=0;right=0;overflow=hidden;shadow=1;labelBackgroundColor=none;" parent="219" vertex="1">
                    <mxGeometry x="221" width="92" height="57" as="geometry">
                        <mxRectangle width="92" height="57" as="alternateBounds"/>
                    </mxGeometry>
                </mxCell>
                <mxCell id="609" value="Protocolo" style="shape=partialRectangle;html=1;whiteSpace=wrap;connectable=0;top=0;left=0;bottom=0;right=0;overflow=hidden;shadow=1;labelBackgroundColor=none;" vertex="1" parent="219">
                    <mxGeometry x="313" width="92" height="57" as="geometry">
                        <mxRectangle width="92" height="57" as="alternateBounds"/>
                    </mxGeometry>
                </mxCell>
                <mxCell id="606" value="DataRetirada" style="shape=partialRectangle;html=1;whiteSpace=wrap;connectable=0;top=0;left=0;bottom=0;right=0;overflow=hidden;shadow=1;labelBackgroundColor=none;" vertex="1" parent="219">
                    <mxGeometry x="405" width="92" height="57" as="geometry">
                        <mxRectangle width="92" height="57" as="alternateBounds"/>
                    </mxGeometry>
                </mxCell>
                <mxCell id="603" value="DataDevolucao" style="shape=partialRectangle;html=1;whiteSpace=wrap;connectable=0;top=0;left=0;bottom=0;right=0;overflow=hidden;shadow=1;labelBackgroundColor=none;" vertex="1" parent="219">
                    <mxGeometry x="497" width="92" height="57" as="geometry">
                        <mxRectangle width="92" height="57" as="alternateBounds"/>
                    </mxGeometry>
                </mxCell>
                <mxCell id="227" value="" style="shape=tableRow;horizontal=0;startSize=0;swimlaneHead=0;swimlaneBody=0;top=0;left=0;bottom=0;right=0;collapsible=0;dropTarget=0;fillColor=none;points=[[0,0.5],[1,0.5]];portConstraint=eastwest;shadow=1;labelBackgroundColor=none;strokeColor=#050505;fontColor=#000000;" parent="218" vertex="1">
                    <mxGeometry y="87" width="589" height="57" as="geometry"/>
                </mxCell>
                <mxCell id="228" value="1" style="shape=partialRectangle;html=1;whiteSpace=wrap;connectable=0;top=0;left=0;bottom=0;right=0;overflow=hidden;shadow=1;labelBackgroundColor=none;fillColor=#eeeeee;strokeColor=#36393d;fontColor=#252323;" parent="227" vertex="1">
                    <mxGeometry width="80" height="57" as="geometry">
                        <mxRectangle width="80" height="57" as="alternateBounds"/>
                    </mxGeometry>
                </mxCell>
                <mxCell id="230" value="1" style="shape=partialRectangle;html=1;whiteSpace=wrap;connectable=0;top=0;left=0;bottom=0;right=0;overflow=hidden;shadow=1;labelBackgroundColor=none;fillColor=#eeeeee;strokeColor=#36393d;fontColor=#252323;" parent="227" vertex="1">
                    <mxGeometry x="80" width="141" height="57" as="geometry">
                        <mxRectangle width="141" height="57" as="alternateBounds"/>
                    </mxGeometry>
                </mxCell>
                <mxCell id="434" value="1" style="shape=partialRectangle;html=1;whiteSpace=wrap;connectable=0;top=0;left=0;bottom=0;right=0;overflow=hidden;shadow=1;labelBackgroundColor=none;fillColor=#eeeeee;strokeColor=#36393d;fontColor=#252323;" parent="227" vertex="1">
                    <mxGeometry x="221" width="92" height="57" as="geometry">
                        <mxRectangle width="92" height="57" as="alternateBounds"/>
                    </mxGeometry>
                </mxCell>
                <mxCell id="610" value="0000001" style="shape=partialRectangle;html=1;whiteSpace=wrap;connectable=0;top=0;left=0;bottom=0;right=0;overflow=hidden;shadow=1;labelBackgroundColor=none;fillColor=#eeeeee;strokeColor=#36393d;fontColor=#252323;" vertex="1" parent="227">
                    <mxGeometry x="313" width="92" height="57" as="geometry">
                        <mxRectangle width="92" height="57" as="alternateBounds"/>
                    </mxGeometry>
                </mxCell>
                <mxCell id="607" value="27/07/23" style="shape=partialRectangle;html=1;whiteSpace=wrap;connectable=0;top=0;left=0;bottom=0;right=0;overflow=hidden;shadow=1;labelBackgroundColor=none;fillColor=#eeeeee;strokeColor=#36393d;fontColor=#252323;" vertex="1" parent="227">
                    <mxGeometry x="405" width="92" height="57" as="geometry">
                        <mxRectangle width="92" height="57" as="alternateBounds"/>
                    </mxGeometry>
                </mxCell>
                <mxCell id="604" value="03/08/23" style="shape=partialRectangle;html=1;whiteSpace=wrap;connectable=0;top=0;left=0;bottom=0;right=0;overflow=hidden;shadow=1;labelBackgroundColor=none;fillColor=#eeeeee;strokeColor=#36393d;fontColor=#252323;" vertex="1" parent="227">
                    <mxGeometry x="497" width="92" height="57" as="geometry">
                        <mxRectangle width="92" height="57" as="alternateBounds"/>
                    </mxGeometry>
                </mxCell>
                <mxCell id="223" value="" style="shape=tableRow;horizontal=0;startSize=0;swimlaneHead=0;swimlaneBody=0;top=0;left=0;bottom=0;right=0;collapsible=0;dropTarget=0;fillColor=none;points=[[0,0.5],[1,0.5]];portConstraint=eastwest;shadow=1;labelBackgroundColor=none;strokeColor=#050505;fontColor=#000000;" parent="218" vertex="1">
                    <mxGeometry y="144" width="589" height="56" as="geometry"/>
                </mxCell>
                <mxCell id="224" value="2" style="shape=partialRectangle;html=1;whiteSpace=wrap;connectable=0;top=0;left=0;bottom=0;right=0;overflow=hidden;shadow=1;labelBackgroundColor=none;fillColor=#eeeeee;strokeColor=#36393d;fontColor=#252323;" parent="223" vertex="1">
                    <mxGeometry width="80" height="56" as="geometry">
                        <mxRectangle width="80" height="56" as="alternateBounds"/>
                    </mxGeometry>
                </mxCell>
                <mxCell id="226" value="3" style="shape=partialRectangle;html=1;whiteSpace=wrap;connectable=0;top=0;left=0;bottom=0;right=0;overflow=hidden;shadow=1;labelBackgroundColor=none;fillColor=#eeeeee;strokeColor=#36393d;fontColor=#252323;" parent="223" vertex="1">
                    <mxGeometry x="80" width="141" height="56" as="geometry">
                        <mxRectangle width="141" height="56" as="alternateBounds"/>
                    </mxGeometry>
                </mxCell>
                <mxCell id="435" value="2" style="shape=partialRectangle;html=1;whiteSpace=wrap;connectable=0;top=0;left=0;bottom=0;right=0;overflow=hidden;shadow=1;labelBackgroundColor=none;fillColor=#eeeeee;strokeColor=#36393d;fontColor=#252323;" parent="223" vertex="1">
                    <mxGeometry x="221" width="92" height="56" as="geometry">
                        <mxRectangle width="92" height="56" as="alternateBounds"/>
                    </mxGeometry>
                </mxCell>
                <mxCell id="611" value="0000002" style="shape=partialRectangle;html=1;whiteSpace=wrap;connectable=0;top=0;left=0;bottom=0;right=0;overflow=hidden;shadow=1;labelBackgroundColor=none;fillColor=#eeeeee;strokeColor=#36393d;fontColor=#252323;" vertex="1" parent="223">
                    <mxGeometry x="313" width="92" height="56" as="geometry">
                        <mxRectangle width="92" height="56" as="alternateBounds"/>
                    </mxGeometry>
                </mxCell>
                <mxCell id="608" value="02/08/23" style="shape=partialRectangle;html=1;whiteSpace=wrap;connectable=0;top=0;left=0;bottom=0;right=0;overflow=hidden;shadow=1;labelBackgroundColor=none;fillColor=#eeeeee;strokeColor=#36393d;fontColor=#252323;" vertex="1" parent="223">
                    <mxGeometry x="405" width="92" height="56" as="geometry">
                        <mxRectangle width="92" height="56" as="alternateBounds"/>
                    </mxGeometry>
                </mxCell>
                <mxCell id="605" value="13/08/23" style="shape=partialRectangle;html=1;whiteSpace=wrap;connectable=0;top=0;left=0;bottom=0;right=0;overflow=hidden;shadow=1;labelBackgroundColor=none;fillColor=#eeeeee;strokeColor=#36393d;fontColor=#252323;" vertex="1" parent="223">
                    <mxGeometry x="497" width="92" height="56" as="geometry">
                        <mxRectangle width="92" height="56" as="alternateBounds"/>
                    </mxGeometry>
                </mxCell>
                <mxCell id="640" style="shape=tableRow;horizontal=0;startSize=0;swimlaneHead=0;swimlaneBody=0;top=0;left=0;bottom=0;right=0;collapsible=0;dropTarget=0;fillColor=none;points=[[0,0.5],[1,0.5]];portConstraint=eastwest;shadow=1;labelBackgroundColor=none;strokeColor=#050505;fontColor=#000000;" vertex="1" parent="218">
                    <mxGeometry y="200" width="589" height="56" as="geometry"/>
                </mxCell>
                <mxCell id="641" value="1" style="shape=partialRectangle;html=1;whiteSpace=wrap;connectable=0;top=0;left=0;bottom=0;right=0;overflow=hidden;shadow=1;labelBackgroundColor=none;fillColor=#eeeeee;strokeColor=#36393d;fontColor=#252323;" vertex="1" parent="640">
                    <mxGeometry width="80" height="56" as="geometry">
                        <mxRectangle width="80" height="56" as="alternateBounds"/>
                    </mxGeometry>
                </mxCell>
                <mxCell id="642" value="4" style="shape=partialRectangle;html=1;whiteSpace=wrap;connectable=0;top=0;left=0;bottom=0;right=0;overflow=hidden;shadow=1;labelBackgroundColor=none;fillColor=#eeeeee;strokeColor=#36393d;fontColor=#252323;" vertex="1" parent="640">
                    <mxGeometry x="80" width="141" height="56" as="geometry">
                        <mxRectangle width="141" height="56" as="alternateBounds"/>
                    </mxGeometry>
                </mxCell>
                <mxCell id="643" value="2" style="shape=partialRectangle;html=1;whiteSpace=wrap;connectable=0;top=0;left=0;bottom=0;right=0;overflow=hidden;shadow=1;labelBackgroundColor=none;fillColor=#eeeeee;strokeColor=#36393d;fontColor=#252323;" vertex="1" parent="640">
                    <mxGeometry x="221" width="92" height="56" as="geometry">
                        <mxRectangle width="92" height="56" as="alternateBounds"/>
                    </mxGeometry>
                </mxCell>
                <mxCell id="644" value="0000003" style="shape=partialRectangle;html=1;whiteSpace=wrap;connectable=0;top=0;left=0;bottom=0;right=0;overflow=hidden;shadow=1;labelBackgroundColor=none;fillColor=#eeeeee;strokeColor=#36393d;fontColor=#252323;" vertex="1" parent="640">
                    <mxGeometry x="313" width="92" height="56" as="geometry">
                        <mxRectangle width="92" height="56" as="alternateBounds"/>
                    </mxGeometry>
                </mxCell>
                <mxCell id="645" value="03/08/23" style="shape=partialRectangle;html=1;whiteSpace=wrap;connectable=0;top=0;left=0;bottom=0;right=0;overflow=hidden;shadow=1;labelBackgroundColor=none;fillColor=#eeeeee;strokeColor=#36393d;fontColor=#252323;" vertex="1" parent="640">
                    <mxGeometry x="405" width="92" height="56" as="geometry">
                        <mxRectangle width="92" height="56" as="alternateBounds"/>
                    </mxGeometry>
                </mxCell>
                <mxCell id="646" value="08/08/23" style="shape=partialRectangle;html=1;whiteSpace=wrap;connectable=0;top=0;left=0;bottom=0;right=0;overflow=hidden;shadow=1;labelBackgroundColor=none;fillColor=#eeeeee;strokeColor=#36393d;fontColor=#252323;" vertex="1" parent="640">
                    <mxGeometry x="497" width="92" height="56" as="geometry">
                        <mxRectangle width="92" height="56" as="alternateBounds"/>
                    </mxGeometry>
                </mxCell>
                <mxCell id="232" value="&lt;div&gt;Construa o Modelo Entidade Relacionamento considerando o seguinte cenário:&lt;/div&gt;&lt;div&gt;&lt;br&gt;&lt;/div&gt;&lt;div&gt;- uma empresa possui vários veículos&lt;/div&gt;&lt;div&gt;- um veículo possui marca(gm, ford, fiat), modelo(onix, fiesta, argo) e placa&lt;/div&gt;&lt;div&gt;- um cliente (cpf, nome) aluga um ou mais veículos&lt;/div&gt;&lt;div&gt;&lt;br&gt;&lt;/div&gt;&lt;div&gt;DML&lt;/div&gt;&lt;div&gt;&lt;br&gt;&lt;/div&gt;&lt;div&gt;- um registro de aluguel deve conter qual cliente alugou, o veículo alugado, data de retirada e data de devolução&lt;/div&gt;&lt;div&gt;&lt;br&gt;&lt;/div&gt;&lt;div&gt;&lt;br&gt;&lt;/div&gt;&lt;div&gt;DQL&lt;/div&gt;&lt;div&gt;&lt;br&gt;&lt;/div&gt;&lt;div&gt;- listar todos os alugueis mostrando as datas de início e fim, o nome do cliente que alugou e nome do modelo do carro&lt;/div&gt;&lt;div&gt;- listar os alugueis de um determinado cliente mostrando seu nome, as datas de início e fim e o nome do modelo do carro&lt;/div&gt;" style="text;whiteSpace=wrap;html=1;fillColor=#f5f5f5;fontColor=#333333;strokeColor=#666666;" parent="1" vertex="1">
                    <mxGeometry x="153" y="-117" width="520" height="287" as="geometry"/>
                </mxCell>
                <mxCell id="252" value="Veiculo" style="shape=table;startSize=30;container=1;collapsible=1;childLayout=tableLayout;fixedRows=1;rowLines=0;fontStyle=1;align=center;resizeLast=1;" parent="1" vertex="1">
                    <mxGeometry x="167.5" y="961" width="180" height="180" as="geometry"/>
                </mxCell>
                <mxCell id="253" value="" style="shape=tableRow;horizontal=0;startSize=0;swimlaneHead=0;swimlaneBody=0;fillColor=none;collapsible=0;dropTarget=0;points=[[0,0.5],[1,0.5]];portConstraint=eastwest;top=0;left=0;right=0;bottom=0;" parent="252" vertex="1">
                    <mxGeometry y="30" width="180" height="30" as="geometry"/>
                </mxCell>
                <mxCell id="254" value="PK" style="shape=partialRectangle;connectable=0;fillColor=none;top=0;left=0;bottom=0;right=0;fontStyle=1;overflow=hidden;" parent="253" vertex="1">
                    <mxGeometry width="60" height="30" as="geometry">
                        <mxRectangle width="60" height="30" as="alternateBounds"/>
                    </mxGeometry>
                </mxCell>
                <mxCell id="255" value="IdVeiculo" style="shape=partialRectangle;connectable=0;fillColor=none;top=0;left=0;bottom=0;right=0;align=left;spacingLeft=6;fontStyle=5;overflow=hidden;" parent="253" vertex="1">
                    <mxGeometry x="60" width="120" height="30" as="geometry">
                        <mxRectangle width="120" height="30" as="alternateBounds"/>
                    </mxGeometry>
                </mxCell>
                <mxCell id="512" value="" style="shape=tableRow;horizontal=0;startSize=0;swimlaneHead=0;swimlaneBody=0;fillColor=none;collapsible=0;dropTarget=0;points=[[0,0.5],[1,0.5]];portConstraint=eastwest;top=0;left=0;right=0;bottom=0;" vertex="1" parent="252">
                    <mxGeometry y="60" width="180" height="30" as="geometry"/>
                </mxCell>
                <mxCell id="513" value="Fk" style="shape=partialRectangle;connectable=0;fillColor=none;top=0;left=0;bottom=0;right=0;fontStyle=1;overflow=hidden;" vertex="1" parent="512">
                    <mxGeometry width="60" height="30" as="geometry">
                        <mxRectangle width="60" height="30" as="alternateBounds"/>
                    </mxGeometry>
                </mxCell>
                <mxCell id="514" value="IdEmpresa" style="shape=partialRectangle;connectable=0;fillColor=none;top=0;left=0;bottom=0;right=0;align=left;spacingLeft=6;fontStyle=1;overflow=hidden;" vertex="1" parent="512">
                    <mxGeometry x="60" width="120" height="30" as="geometry">
                        <mxRectangle width="120" height="30" as="alternateBounds"/>
                    </mxGeometry>
                </mxCell>
                <mxCell id="515" value="" style="shape=tableRow;horizontal=0;startSize=0;swimlaneHead=0;swimlaneBody=0;fillColor=none;collapsible=0;dropTarget=0;points=[[0,0.5],[1,0.5]];portConstraint=eastwest;top=0;left=0;right=0;bottom=0;" vertex="1" parent="252">
                    <mxGeometry y="90" width="180" height="30" as="geometry"/>
                </mxCell>
                <mxCell id="516" value="FK" style="shape=partialRectangle;connectable=0;fillColor=none;top=0;left=0;bottom=0;right=0;fontStyle=1;overflow=hidden;" vertex="1" parent="515">
                    <mxGeometry width="60" height="30" as="geometry">
                        <mxRectangle width="60" height="30" as="alternateBounds"/>
                    </mxGeometry>
                </mxCell>
                <mxCell id="517" value="IdModelo" style="shape=partialRectangle;connectable=0;fillColor=none;top=0;left=0;bottom=0;right=0;align=left;spacingLeft=6;fontStyle=1;overflow=hidden;" vertex="1" parent="515">
                    <mxGeometry x="60" width="120" height="30" as="geometry">
                        <mxRectangle width="120" height="30" as="alternateBounds"/>
                    </mxGeometry>
                </mxCell>
                <mxCell id="256" value="" style="shape=tableRow;horizontal=0;startSize=0;swimlaneHead=0;swimlaneBody=0;fillColor=none;collapsible=0;dropTarget=0;points=[[0,0.5],[1,0.5]];portConstraint=eastwest;top=0;left=0;right=0;bottom=1;" parent="252" vertex="1">
                    <mxGeometry y="120" width="180" height="30" as="geometry"/>
                </mxCell>
                <mxCell id="257" value="FK" style="shape=partialRectangle;connectable=0;fillColor=none;top=0;left=0;bottom=0;right=0;fontStyle=1;overflow=hidden;" parent="256" vertex="1">
                    <mxGeometry width="60" height="30" as="geometry">
                        <mxRectangle width="60" height="30" as="alternateBounds"/>
                    </mxGeometry>
                </mxCell>
                <mxCell id="258" value="IdMarca" style="shape=partialRectangle;connectable=0;fillColor=none;top=0;left=0;bottom=0;right=0;align=left;spacingLeft=6;fontStyle=1;overflow=hidden;" parent="256" vertex="1">
                    <mxGeometry x="60" width="120" height="30" as="geometry">
                        <mxRectangle width="120" height="30" as="alternateBounds"/>
                    </mxGeometry>
                </mxCell>
                <mxCell id="259" value="" style="shape=tableRow;horizontal=0;startSize=0;swimlaneHead=0;swimlaneBody=0;fillColor=none;collapsible=0;dropTarget=0;points=[[0,0.5],[1,0.5]];portConstraint=eastwest;top=0;left=0;right=0;bottom=0;" parent="252" vertex="1">
                    <mxGeometry y="150" width="180" height="30" as="geometry"/>
                </mxCell>
                <mxCell id="260" value="" style="shape=partialRectangle;connectable=0;fillColor=none;top=0;left=0;bottom=0;right=0;editable=1;overflow=hidden;" parent="259" vertex="1">
                    <mxGeometry width="60" height="30" as="geometry">
                        <mxRectangle width="60" height="30" as="alternateBounds"/>
                    </mxGeometry>
                </mxCell>
                <mxCell id="261" value="Placa" style="shape=partialRectangle;connectable=0;fillColor=none;top=0;left=0;bottom=0;right=0;align=left;spacingLeft=6;overflow=hidden;" parent="259" vertex="1">
                    <mxGeometry x="60" width="120" height="30" as="geometry">
                        <mxRectangle width="120" height="30" as="alternateBounds"/>
                    </mxGeometry>
                </mxCell>
                <mxCell id="287" value="Cliente" style="shape=table;startSize=30;container=1;collapsible=1;childLayout=tableLayout;fixedRows=1;rowLines=0;fontStyle=1;align=center;resizeLast=1;" parent="1" vertex="1">
                    <mxGeometry x="719.5" y="961" width="180" height="120" as="geometry"/>
                </mxCell>
                <mxCell id="291" value="" style="shape=tableRow;horizontal=0;startSize=0;swimlaneHead=0;swimlaneBody=0;fillColor=none;collapsible=0;dropTarget=0;points=[[0,0.5],[1,0.5]];portConstraint=eastwest;top=0;left=0;right=0;bottom=1;" parent="287" vertex="1">
                    <mxGeometry y="30" width="180" height="30" as="geometry"/>
                </mxCell>
                <mxCell id="292" value="PK" style="shape=partialRectangle;connectable=0;fillColor=none;top=0;left=0;bottom=0;right=0;fontStyle=1;overflow=hidden;" parent="291" vertex="1">
                    <mxGeometry width="60" height="30" as="geometry">
                        <mxRectangle width="60" height="30" as="alternateBounds"/>
                    </mxGeometry>
                </mxCell>
                <mxCell id="293" value="IdCliente" style="shape=partialRectangle;connectable=0;fillColor=none;top=0;left=0;bottom=0;right=0;align=left;spacingLeft=6;fontStyle=5;overflow=hidden;" parent="291" vertex="1">
                    <mxGeometry x="60" width="120" height="30" as="geometry">
                        <mxRectangle width="120" height="30" as="alternateBounds"/>
                    </mxGeometry>
                </mxCell>
                <mxCell id="294" value="" style="shape=tableRow;horizontal=0;startSize=0;swimlaneHead=0;swimlaneBody=0;fillColor=none;collapsible=0;dropTarget=0;points=[[0,0.5],[1,0.5]];portConstraint=eastwest;top=0;left=0;right=0;bottom=0;" parent="287" vertex="1">
                    <mxGeometry y="60" width="180" height="30" as="geometry"/>
                </mxCell>
                <mxCell id="295" value="" style="shape=partialRectangle;connectable=0;fillColor=none;top=0;left=0;bottom=0;right=0;editable=1;overflow=hidden;" parent="294" vertex="1">
                    <mxGeometry width="60" height="30" as="geometry">
                        <mxRectangle width="60" height="30" as="alternateBounds"/>
                    </mxGeometry>
                </mxCell>
                <mxCell id="296" value="Nome" style="shape=partialRectangle;connectable=0;fillColor=none;top=0;left=0;bottom=0;right=0;align=left;spacingLeft=6;overflow=hidden;" parent="294" vertex="1">
                    <mxGeometry x="60" width="120" height="30" as="geometry">
                        <mxRectangle width="120" height="30" as="alternateBounds"/>
                    </mxGeometry>
                </mxCell>
                <mxCell id="541" value="" style="shape=tableRow;horizontal=0;startSize=0;swimlaneHead=0;swimlaneBody=0;fillColor=none;collapsible=0;dropTarget=0;points=[[0,0.5],[1,0.5]];portConstraint=eastwest;top=0;left=0;right=0;bottom=0;" vertex="1" parent="287">
                    <mxGeometry y="90" width="180" height="30" as="geometry"/>
                </mxCell>
                <mxCell id="542" value="" style="shape=partialRectangle;connectable=0;fillColor=none;top=0;left=0;bottom=0;right=0;editable=1;overflow=hidden;" vertex="1" parent="541">
                    <mxGeometry width="60" height="30" as="geometry">
                        <mxRectangle width="60" height="30" as="alternateBounds"/>
                    </mxGeometry>
                </mxCell>
                <mxCell id="543" value="CPF" style="shape=partialRectangle;connectable=0;fillColor=none;top=0;left=0;bottom=0;right=0;align=left;spacingLeft=6;overflow=hidden;" vertex="1" parent="541">
                    <mxGeometry x="60" width="120" height="30" as="geometry">
                        <mxRectangle width="120" height="30" as="alternateBounds"/>
                    </mxGeometry>
                </mxCell>
                <mxCell id="403" value="Empresa" style="shape=table;startSize=30;container=1;collapsible=1;childLayout=tableLayout;fixedRows=1;rowLines=0;fontStyle=1;align=center;resizeLast=1;" parent="1" vertex="1">
                    <mxGeometry x="-73.5" y="960" width="180" height="120" as="geometry"/>
                </mxCell>
                <mxCell id="404" value="" style="shape=tableRow;horizontal=0;startSize=0;swimlaneHead=0;swimlaneBody=0;fillColor=none;collapsible=0;dropTarget=0;points=[[0,0.5],[1,0.5]];portConstraint=eastwest;top=0;left=0;right=0;bottom=1;" parent="403" vertex="1">
                    <mxGeometry y="30" width="180" height="30" as="geometry"/>
                </mxCell>
                <mxCell id="405" value="PK" style="shape=partialRectangle;connectable=0;fillColor=none;top=0;left=0;bottom=0;right=0;fontStyle=1;overflow=hidden;" parent="404" vertex="1">
                    <mxGeometry width="30" height="30" as="geometry">
                        <mxRectangle width="30" height="30" as="alternateBounds"/>
                    </mxGeometry>
                </mxCell>
                <mxCell id="406" value="IdEmpresa" style="shape=partialRectangle;connectable=0;fillColor=none;top=0;left=0;bottom=0;right=0;align=left;spacingLeft=6;fontStyle=5;overflow=hidden;" parent="404" vertex="1">
                    <mxGeometry x="30" width="150" height="30" as="geometry">
                        <mxRectangle width="150" height="30" as="alternateBounds"/>
                    </mxGeometry>
                </mxCell>
                <mxCell id="407" value="" style="shape=tableRow;horizontal=0;startSize=0;swimlaneHead=0;swimlaneBody=0;fillColor=none;collapsible=0;dropTarget=0;points=[[0,0.5],[1,0.5]];portConstraint=eastwest;top=0;left=0;right=0;bottom=0;" parent="403" vertex="1">
                    <mxGeometry y="60" width="180" height="30" as="geometry"/>
                </mxCell>
                <mxCell id="408" value="" style="shape=partialRectangle;connectable=0;fillColor=none;top=0;left=0;bottom=0;right=0;editable=1;overflow=hidden;" parent="407" vertex="1">
                    <mxGeometry width="30" height="30" as="geometry">
                        <mxRectangle width="30" height="30" as="alternateBounds"/>
                    </mxGeometry>
                </mxCell>
                <mxCell id="409" value="Nome" style="shape=partialRectangle;connectable=0;fillColor=none;top=0;left=0;bottom=0;right=0;align=left;spacingLeft=6;overflow=hidden;" parent="407" vertex="1">
                    <mxGeometry x="30" width="150" height="30" as="geometry">
                        <mxRectangle width="150" height="30" as="alternateBounds"/>
                    </mxGeometry>
                </mxCell>
                <mxCell id="410" value="" style="shape=tableRow;horizontal=0;startSize=0;swimlaneHead=0;swimlaneBody=0;fillColor=none;collapsible=0;dropTarget=0;points=[[0,0.5],[1,0.5]];portConstraint=eastwest;top=0;left=0;right=0;bottom=0;" parent="403" vertex="1">
                    <mxGeometry y="90" width="180" height="30" as="geometry"/>
                </mxCell>
                <mxCell id="411" value="" style="shape=partialRectangle;connectable=0;fillColor=none;top=0;left=0;bottom=0;right=0;editable=1;overflow=hidden;" parent="410" vertex="1">
                    <mxGeometry width="30" height="30" as="geometry">
                        <mxRectangle width="30" height="30" as="alternateBounds"/>
                    </mxGeometry>
                </mxCell>
                <mxCell id="412" value="CNPJ" style="shape=partialRectangle;connectable=0;fillColor=none;top=0;left=0;bottom=0;right=0;align=left;spacingLeft=6;overflow=hidden;" parent="410" vertex="1">
                    <mxGeometry x="30" width="150" height="30" as="geometry">
                        <mxRectangle width="150" height="30" as="alternateBounds"/>
                    </mxGeometry>
                </mxCell>
                <mxCell id="444" value="Veiculo" style="shape=table;startSize=30;container=1;collapsible=0;childLayout=tableLayout;fontStyle=1;align=center;shadow=1;labelBackgroundColor=none;" parent="1" vertex="1">
                    <mxGeometry x="-23" y="1651" width="810" height="311" as="geometry"/>
                </mxCell>
                <mxCell id="445" value="" style="shape=tableRow;horizontal=0;startSize=0;swimlaneHead=0;swimlaneBody=0;top=0;left=0;bottom=0;right=0;collapsible=0;dropTarget=0;fillColor=none;points=[[0,0.5],[1,0.5]];portConstraint=eastwest;shadow=1;labelBackgroundColor=none;strokeColor=#050505;fontColor=#000000;" parent="444" vertex="1">
                    <mxGeometry y="30" width="810" height="57" as="geometry"/>
                </mxCell>
                <mxCell id="446" value="IdVeiculo" style="shape=partialRectangle;html=1;whiteSpace=wrap;connectable=0;top=0;left=0;bottom=0;right=0;overflow=hidden;shadow=1;labelBackgroundColor=none;" parent="445" vertex="1">
                    <mxGeometry width="80" height="57" as="geometry">
                        <mxRectangle width="80" height="57" as="alternateBounds"/>
                    </mxGeometry>
                </mxCell>
                <mxCell id="447" value="IdEmpresa" style="shape=partialRectangle;html=1;whiteSpace=wrap;connectable=0;top=0;left=0;bottom=0;right=0;overflow=hidden;shadow=1;labelBackgroundColor=none;" parent="445" vertex="1">
                    <mxGeometry x="80" width="70" height="57" as="geometry">
                        <mxRectangle width="70" height="57" as="alternateBounds"/>
                    </mxGeometry>
                </mxCell>
                <mxCell id="448" value="IdModelo" style="shape=partialRectangle;html=1;whiteSpace=wrap;connectable=0;top=0;left=0;bottom=0;right=0;overflow=hidden;shadow=1;labelBackgroundColor=none;" parent="445" vertex="1">
                    <mxGeometry x="150" width="220" height="57" as="geometry">
                        <mxRectangle width="220" height="57" as="alternateBounds"/>
                    </mxGeometry>
                </mxCell>
                <mxCell id="570" value="IdMarca" style="shape=partialRectangle;html=1;whiteSpace=wrap;connectable=0;top=0;left=0;bottom=0;right=0;overflow=hidden;shadow=1;labelBackgroundColor=none;" vertex="1" parent="445">
                    <mxGeometry x="370" width="220" height="57" as="geometry">
                        <mxRectangle width="220" height="57" as="alternateBounds"/>
                    </mxGeometry>
                </mxCell>
                <mxCell id="575" value="Placa" style="shape=partialRectangle;html=1;whiteSpace=wrap;connectable=0;top=0;left=0;bottom=0;right=0;overflow=hidden;shadow=1;labelBackgroundColor=none;" vertex="1" parent="445">
                    <mxGeometry x="590" width="220" height="57" as="geometry">
                        <mxRectangle width="220" height="57" as="alternateBounds"/>
                    </mxGeometry>
                </mxCell>
                <mxCell id="449" value="" style="shape=tableRow;horizontal=0;startSize=0;swimlaneHead=0;swimlaneBody=0;top=0;left=0;bottom=0;right=0;collapsible=0;dropTarget=0;fillColor=none;points=[[0,0.5],[1,0.5]];portConstraint=eastwest;shadow=1;labelBackgroundColor=none;strokeColor=#050505;fontColor=#000000;" parent="444" vertex="1">
                    <mxGeometry y="87" width="810" height="56" as="geometry"/>
                </mxCell>
                <mxCell id="450" value="1" style="shape=partialRectangle;html=1;whiteSpace=wrap;connectable=0;top=0;left=0;bottom=0;right=0;overflow=hidden;shadow=1;labelBackgroundColor=none;fillColor=#eeeeee;strokeColor=#36393d;fontColor=#252323;" parent="449" vertex="1">
                    <mxGeometry width="80" height="56" as="geometry">
                        <mxRectangle width="80" height="56" as="alternateBounds"/>
                    </mxGeometry>
                </mxCell>
                <mxCell id="451" value="3" style="shape=partialRectangle;html=1;whiteSpace=wrap;connectable=0;top=0;left=0;bottom=0;right=0;overflow=hidden;shadow=1;labelBackgroundColor=none;fillColor=#eeeeee;strokeColor=#36393d;fontColor=#252323;" parent="449" vertex="1">
                    <mxGeometry x="80" width="70" height="56" as="geometry">
                        <mxRectangle width="70" height="56" as="alternateBounds"/>
                    </mxGeometry>
                </mxCell>
                <mxCell id="452" value="4" style="shape=partialRectangle;html=1;whiteSpace=wrap;connectable=0;top=0;left=0;bottom=0;right=0;overflow=hidden;shadow=1;labelBackgroundColor=none;fillColor=#eeeeee;strokeColor=#36393d;fontColor=#252323;" parent="449" vertex="1">
                    <mxGeometry x="150" width="220" height="56" as="geometry">
                        <mxRectangle width="220" height="56" as="alternateBounds"/>
                    </mxGeometry>
                </mxCell>
                <mxCell id="571" value="2" style="shape=partialRectangle;html=1;whiteSpace=wrap;connectable=0;top=0;left=0;bottom=0;right=0;overflow=hidden;shadow=1;labelBackgroundColor=none;fillColor=#eeeeee;strokeColor=#36393d;fontColor=#252323;" vertex="1" parent="449">
                    <mxGeometry x="370" width="220" height="56" as="geometry">
                        <mxRectangle width="220" height="56" as="alternateBounds"/>
                    </mxGeometry>
                </mxCell>
                <mxCell id="576" value="D5F563R" style="shape=partialRectangle;html=1;whiteSpace=wrap;connectable=0;top=0;left=0;bottom=0;right=0;overflow=hidden;shadow=1;labelBackgroundColor=none;fillColor=#eeeeee;strokeColor=#36393d;fontColor=#252323;" vertex="1" parent="449">
                    <mxGeometry x="590" width="220" height="56" as="geometry">
                        <mxRectangle width="220" height="56" as="alternateBounds"/>
                    </mxGeometry>
                </mxCell>
                <mxCell id="453" value="" style="shape=tableRow;horizontal=0;startSize=0;swimlaneHead=0;swimlaneBody=0;top=0;left=0;bottom=0;right=0;collapsible=0;dropTarget=0;fillColor=none;points=[[0,0.5],[1,0.5]];portConstraint=eastwest;shadow=1;labelBackgroundColor=none;strokeColor=#050505;fontColor=#000000;" parent="444" vertex="1">
                    <mxGeometry y="143" width="810" height="54" as="geometry"/>
                </mxCell>
                <mxCell id="454" value="2" style="shape=partialRectangle;html=1;whiteSpace=wrap;connectable=0;top=0;left=0;bottom=0;right=0;overflow=hidden;shadow=1;labelBackgroundColor=none;fillColor=#eeeeee;strokeColor=#36393d;fontColor=#252323;" parent="453" vertex="1">
                    <mxGeometry width="80" height="54" as="geometry">
                        <mxRectangle width="80" height="54" as="alternateBounds"/>
                    </mxGeometry>
                </mxCell>
                <mxCell id="455" value="2" style="shape=partialRectangle;html=1;whiteSpace=wrap;connectable=0;top=0;left=0;bottom=0;right=0;overflow=hidden;shadow=1;labelBackgroundColor=none;fillColor=#eeeeee;strokeColor=#36393d;fontColor=#252323;" parent="453" vertex="1">
                    <mxGeometry x="80" width="70" height="54" as="geometry">
                        <mxRectangle width="70" height="54" as="alternateBounds"/>
                    </mxGeometry>
                </mxCell>
                <mxCell id="456" value="3" style="shape=partialRectangle;html=1;whiteSpace=wrap;connectable=0;top=0;left=0;bottom=0;right=0;overflow=hidden;shadow=1;labelBackgroundColor=none;fillColor=#eeeeee;strokeColor=#36393d;fontColor=#252323;" parent="453" vertex="1">
                    <mxGeometry x="150" width="220" height="54" as="geometry">
                        <mxRectangle width="220" height="54" as="alternateBounds"/>
                    </mxGeometry>
                </mxCell>
                <mxCell id="572" value="4" style="shape=partialRectangle;html=1;whiteSpace=wrap;connectable=0;top=0;left=0;bottom=0;right=0;overflow=hidden;shadow=1;labelBackgroundColor=none;fillColor=#eeeeee;strokeColor=#36393d;fontColor=#252323;" vertex="1" parent="453">
                    <mxGeometry x="370" width="220" height="54" as="geometry">
                        <mxRectangle width="220" height="54" as="alternateBounds"/>
                    </mxGeometry>
                </mxCell>
                <mxCell id="577" value="T98G523" style="shape=partialRectangle;html=1;whiteSpace=wrap;connectable=0;top=0;left=0;bottom=0;right=0;overflow=hidden;shadow=1;labelBackgroundColor=none;fillColor=#eeeeee;strokeColor=#36393d;fontColor=#252323;" vertex="1" parent="453">
                    <mxGeometry x="590" width="220" height="54" as="geometry">
                        <mxRectangle width="220" height="54" as="alternateBounds"/>
                    </mxGeometry>
                </mxCell>
                <mxCell id="457" style="shape=tableRow;horizontal=0;startSize=0;swimlaneHead=0;swimlaneBody=0;top=0;left=0;bottom=0;right=0;collapsible=0;dropTarget=0;fillColor=none;points=[[0,0.5],[1,0.5]];portConstraint=eastwest;shadow=1;labelBackgroundColor=none;strokeColor=#050505;fontColor=#000000;" parent="444" vertex="1">
                    <mxGeometry y="197" width="810" height="57" as="geometry"/>
                </mxCell>
                <mxCell id="458" value="3" style="shape=partialRectangle;html=1;whiteSpace=wrap;connectable=0;top=0;left=0;bottom=0;right=0;overflow=hidden;shadow=1;labelBackgroundColor=none;fillColor=#eeeeee;strokeColor=#36393d;fontColor=#252323;" parent="457" vertex="1">
                    <mxGeometry width="80" height="57" as="geometry">
                        <mxRectangle width="80" height="57" as="alternateBounds"/>
                    </mxGeometry>
                </mxCell>
                <mxCell id="459" value="2" style="shape=partialRectangle;html=1;whiteSpace=wrap;connectable=0;top=0;left=0;bottom=0;right=0;overflow=hidden;shadow=1;labelBackgroundColor=none;fillColor=#eeeeee;strokeColor=#36393d;fontColor=#252323;" parent="457" vertex="1">
                    <mxGeometry x="80" width="70" height="57" as="geometry">
                        <mxRectangle width="70" height="57" as="alternateBounds"/>
                    </mxGeometry>
                </mxCell>
                <mxCell id="460" value="5" style="shape=partialRectangle;html=1;whiteSpace=wrap;connectable=0;top=0;left=0;bottom=0;right=0;overflow=hidden;shadow=1;labelBackgroundColor=none;fillColor=#eeeeee;strokeColor=#36393d;fontColor=#252323;" parent="457" vertex="1">
                    <mxGeometry x="150" width="220" height="57" as="geometry">
                        <mxRectangle width="220" height="57" as="alternateBounds"/>
                    </mxGeometry>
                </mxCell>
                <mxCell id="573" value="1" style="shape=partialRectangle;html=1;whiteSpace=wrap;connectable=0;top=0;left=0;bottom=0;right=0;overflow=hidden;shadow=1;labelBackgroundColor=none;fillColor=#eeeeee;strokeColor=#36393d;fontColor=#252323;" vertex="1" parent="457">
                    <mxGeometry x="370" width="220" height="57" as="geometry">
                        <mxRectangle width="220" height="57" as="alternateBounds"/>
                    </mxGeometry>
                </mxCell>
                <mxCell id="578" value="YR92C56" style="shape=partialRectangle;html=1;whiteSpace=wrap;connectable=0;top=0;left=0;bottom=0;right=0;overflow=hidden;shadow=1;labelBackgroundColor=none;fillColor=#eeeeee;strokeColor=#36393d;fontColor=#252323;" vertex="1" parent="457">
                    <mxGeometry x="590" width="220" height="57" as="geometry">
                        <mxRectangle width="220" height="57" as="alternateBounds"/>
                    </mxGeometry>
                </mxCell>
                <mxCell id="461" style="shape=tableRow;horizontal=0;startSize=0;swimlaneHead=0;swimlaneBody=0;top=0;left=0;bottom=0;right=0;collapsible=0;dropTarget=0;fillColor=none;points=[[0,0.5],[1,0.5]];portConstraint=eastwest;shadow=1;labelBackgroundColor=none;strokeColor=#050505;fontColor=#000000;" parent="444" vertex="1">
                    <mxGeometry y="254" width="810" height="57" as="geometry"/>
                </mxCell>
                <mxCell id="462" value="4" style="shape=partialRectangle;html=1;whiteSpace=wrap;connectable=0;top=0;left=0;bottom=0;right=0;overflow=hidden;shadow=1;labelBackgroundColor=none;fillColor=#eeeeee;strokeColor=#36393d;fontColor=#252323;" parent="461" vertex="1">
                    <mxGeometry width="80" height="57" as="geometry">
                        <mxRectangle width="80" height="57" as="alternateBounds"/>
                    </mxGeometry>
                </mxCell>
                <mxCell id="463" value="1" style="shape=partialRectangle;html=1;whiteSpace=wrap;connectable=0;top=0;left=0;bottom=0;right=0;overflow=hidden;shadow=1;labelBackgroundColor=none;fillColor=#eeeeee;strokeColor=#36393d;fontColor=#252323;" parent="461" vertex="1">
                    <mxGeometry x="80" width="70" height="57" as="geometry">
                        <mxRectangle width="70" height="57" as="alternateBounds"/>
                    </mxGeometry>
                </mxCell>
                <mxCell id="464" value="2" style="shape=partialRectangle;html=1;whiteSpace=wrap;connectable=0;top=0;left=0;bottom=0;right=0;overflow=hidden;shadow=1;labelBackgroundColor=none;fillColor=#eeeeee;strokeColor=#36393d;fontColor=#252323;" parent="461" vertex="1">
                    <mxGeometry x="150" width="220" height="57" as="geometry">
                        <mxRectangle width="220" height="57" as="alternateBounds"/>
                    </mxGeometry>
                </mxCell>
                <mxCell id="574" value="3" style="shape=partialRectangle;html=1;whiteSpace=wrap;connectable=0;top=0;left=0;bottom=0;right=0;overflow=hidden;shadow=1;labelBackgroundColor=none;fillColor=#eeeeee;strokeColor=#36393d;fontColor=#252323;" vertex="1" parent="461">
                    <mxGeometry x="370" width="220" height="57" as="geometry">
                        <mxRectangle width="220" height="57" as="alternateBounds"/>
                    </mxGeometry>
                </mxCell>
                <mxCell id="579" value="TRE22DW" style="shape=partialRectangle;html=1;whiteSpace=wrap;connectable=0;top=0;left=0;bottom=0;right=0;overflow=hidden;shadow=1;labelBackgroundColor=none;fillColor=#eeeeee;strokeColor=#36393d;fontColor=#252323;" vertex="1" parent="461">
                    <mxGeometry x="590" width="220" height="57" as="geometry">
                        <mxRectangle width="220" height="57" as="alternateBounds"/>
                    </mxGeometry>
                </mxCell>
                <mxCell id="465" value="Empresa" style="whiteSpace=wrap;html=1;align=center;" vertex="1" parent="1">
                    <mxGeometry x="-203" y="571" width="100" height="40" as="geometry"/>
                </mxCell>
                <mxCell id="486" style="edgeStyle=none;html=1;endArrow=none;endFill=0;entryX=0;entryY=0.5;entryDx=0;entryDy=0;" edge="1" parent="1" source="466" target="497">
                    <mxGeometry relative="1" as="geometry">
                        <mxPoint x="292.655737704918" y="592.6721311475412" as="targetPoint"/>
                    </mxGeometry>
                </mxCell>
                <mxCell id="504" value="1" style="edgeLabel;html=1;align=center;verticalAlign=middle;resizable=0;points=[];" vertex="1" connectable="0" parent="486">
                    <mxGeometry x="-0.4359" relative="1" as="geometry">
                        <mxPoint as="offset"/>
                    </mxGeometry>
                </mxCell>
                <mxCell id="466" value="Veiculo" style="whiteSpace=wrap;html=1;align=center;" vertex="1" parent="1">
                    <mxGeometry x="121" y="572" width="100" height="40" as="geometry"/>
                </mxCell>
                <mxCell id="468" style="edgeStyle=none;html=1;endArrow=none;endFill=0;" edge="1" parent="1" source="467" target="465">
                    <mxGeometry relative="1" as="geometry"/>
                </mxCell>
                <mxCell id="489" value="1" style="edgeLabel;html=1;align=center;verticalAlign=middle;resizable=0;points=[];" vertex="1" connectable="0" parent="468">
                    <mxGeometry x="0.368" relative="1" as="geometry">
                        <mxPoint as="offset"/>
                    </mxGeometry>
                </mxCell>
                <mxCell id="469" style="edgeStyle=none;html=1;endArrow=none;endFill=0;" edge="1" parent="1" source="467" target="466">
                    <mxGeometry relative="1" as="geometry"/>
                </mxCell>
                <mxCell id="488" value="N" style="edgeLabel;html=1;align=center;verticalAlign=middle;resizable=0;points=[];" vertex="1" connectable="0" parent="469">
                    <mxGeometry x="0.1016" y="-1" relative="1" as="geometry">
                        <mxPoint as="offset"/>
                    </mxGeometry>
                </mxCell>
                <mxCell id="467" value="Possui" style="shape=rhombus;perimeter=rhombusPerimeter;whiteSpace=wrap;html=1;align=center;" vertex="1" parent="1">
                    <mxGeometry x="-49" y="559" width="120" height="60" as="geometry"/>
                </mxCell>
                <mxCell id="470" value="Marca" style="whiteSpace=wrap;html=1;align=center;" vertex="1" parent="1">
                    <mxGeometry x="217.5" y="377" width="100" height="40" as="geometry"/>
                </mxCell>
                <mxCell id="472" style="edgeStyle=none;html=1;endArrow=none;endFill=0;" edge="1" parent="1" source="471" target="466">
                    <mxGeometry relative="1" as="geometry"/>
                </mxCell>
                <mxCell id="493" value="N" style="edgeLabel;html=1;align=center;verticalAlign=middle;resizable=0;points=[];" vertex="1" connectable="0" parent="472">
                    <mxGeometry x="0.4508" y="-1" relative="1" as="geometry">
                        <mxPoint x="4" y="-4" as="offset"/>
                    </mxGeometry>
                </mxCell>
                <mxCell id="473" style="edgeStyle=none;html=1;endArrow=none;endFill=0;" edge="1" parent="1" source="471" target="470">
                    <mxGeometry relative="1" as="geometry"/>
                </mxCell>
                <mxCell id="492" value="1" style="edgeLabel;html=1;align=center;verticalAlign=middle;resizable=0;points=[];" vertex="1" connectable="0" parent="473">
                    <mxGeometry x="0.3035" relative="1" as="geometry">
                        <mxPoint as="offset"/>
                    </mxGeometry>
                </mxCell>
                <mxCell id="471" value="Possui" style="shape=rhombus;perimeter=rhombusPerimeter;whiteSpace=wrap;html=1;align=center;" vertex="1" parent="1">
                    <mxGeometry x="207.5" y="458" width="120" height="60" as="geometry"/>
                </mxCell>
                <mxCell id="474" value="Modelo" style="whiteSpace=wrap;html=1;align=center;" vertex="1" parent="1">
                    <mxGeometry x="24.5" y="377" width="100" height="40" as="geometry"/>
                </mxCell>
                <mxCell id="475" style="edgeStyle=none;html=1;endArrow=none;endFill=0;" edge="1" source="477" parent="1" target="466">
                    <mxGeometry relative="1" as="geometry">
                        <mxPoint x="316.7777777777778" y="626" as="targetPoint"/>
                    </mxGeometry>
                </mxCell>
                <mxCell id="491" value="N" style="edgeLabel;html=1;align=center;verticalAlign=middle;resizable=0;points=[];" vertex="1" connectable="0" parent="475">
                    <mxGeometry x="0.2172" y="-1" relative="1" as="geometry">
                        <mxPoint as="offset"/>
                    </mxGeometry>
                </mxCell>
                <mxCell id="476" style="edgeStyle=none;html=1;endArrow=none;endFill=0;" edge="1" source="477" target="474" parent="1">
                    <mxGeometry relative="1" as="geometry"/>
                </mxCell>
                <mxCell id="490" value="1" style="edgeLabel;html=1;align=center;verticalAlign=middle;resizable=0;points=[];" vertex="1" connectable="0" parent="476">
                    <mxGeometry x="0.3035" relative="1" as="geometry">
                        <mxPoint as="offset"/>
                    </mxGeometry>
                </mxCell>
                <mxCell id="477" value="Possui" style="shape=rhombus;perimeter=rhombusPerimeter;whiteSpace=wrap;html=1;align=center;" vertex="1" parent="1">
                    <mxGeometry x="14.5" y="458" width="120" height="60" as="geometry"/>
                </mxCell>
                <mxCell id="479" style="edgeStyle=none;html=1;endArrow=none;endFill=0;" edge="1" parent="1" source="478" target="466">
                    <mxGeometry relative="1" as="geometry"/>
                </mxCell>
                <mxCell id="478" value="Placa" style="ellipse;whiteSpace=wrap;html=1;align=center;" vertex="1" parent="1">
                    <mxGeometry x="121" y="641" width="100" height="40" as="geometry"/>
                </mxCell>
                <mxCell id="480" value="Cliente" style="whiteSpace=wrap;html=1;align=center;" vertex="1" parent="1">
                    <mxGeometry x="890.0000000000002" y="572" width="100" height="40" as="geometry"/>
                </mxCell>
                <mxCell id="484" style="edgeStyle=none;html=1;endArrow=none;endFill=0;" edge="1" parent="1" source="481" target="480">
                    <mxGeometry relative="1" as="geometry"/>
                </mxCell>
                <mxCell id="481" value="CPF" style="ellipse;whiteSpace=wrap;html=1;align=center;" vertex="1" parent="1">
                    <mxGeometry x="832.0000000000002" y="635" width="100" height="40" as="geometry"/>
                </mxCell>
                <mxCell id="483" style="edgeStyle=none;html=1;endArrow=none;endFill=0;" edge="1" parent="1" source="482" target="480">
                    <mxGeometry relative="1" as="geometry"/>
                </mxCell>
                <mxCell id="482" value="Nome" style="ellipse;whiteSpace=wrap;html=1;align=center;" vertex="1" parent="1">
                    <mxGeometry x="948.0000000000002" y="635" width="100" height="40" as="geometry"/>
                </mxCell>
                <mxCell id="487" style="edgeStyle=none;html=1;endArrow=none;endFill=0;" edge="1" parent="1" source="498" target="480">
                    <mxGeometry relative="1" as="geometry">
                        <mxPoint x="893.0008629441622" y="576.6954314720815" as="sourcePoint"/>
                    </mxGeometry>
                </mxCell>
                <mxCell id="494" value="1" style="edgeLabel;html=1;align=center;verticalAlign=middle;resizable=0;points=[];" vertex="1" connectable="0" parent="487">
                    <mxGeometry x="0.5074" y="1" relative="1" as="geometry">
                        <mxPoint as="offset"/>
                    </mxGeometry>
                </mxCell>
                <mxCell id="500" value="" style="edgeStyle=none;html=1;endArrow=none;endFill=0;" edge="1" parent="1" source="496" target="498">
                    <mxGeometry relative="1" as="geometry"/>
                </mxCell>
                <mxCell id="502" value="N" style="edgeLabel;html=1;align=center;verticalAlign=middle;resizable=0;points=[];" vertex="1" connectable="0" parent="500">
                    <mxGeometry x="-0.3713" relative="1" as="geometry">
                        <mxPoint as="offset"/>
                    </mxGeometry>
                </mxCell>
                <mxCell id="506" style="edgeStyle=none;html=1;endArrow=none;endFill=0;" edge="1" parent="1" source="496" target="505">
                    <mxGeometry relative="1" as="geometry"/>
                </mxCell>
                <mxCell id="496" value="Aluguel" style="whiteSpace=wrap;html=1;align=center;" vertex="1" parent="1">
                    <mxGeometry x="513" y="572" width="100" height="40" as="geometry"/>
                </mxCell>
                <mxCell id="499" value="" style="edgeStyle=none;html=1;endArrow=none;endFill=0;" edge="1" parent="1" source="497" target="496">
                    <mxGeometry relative="1" as="geometry">
                        <Array as="points">
                            <mxPoint x="465" y="592"/>
                        </Array>
                    </mxGeometry>
                </mxCell>
                <mxCell id="503" value="N" style="edgeLabel;html=1;align=center;verticalAlign=middle;resizable=0;points=[];" vertex="1" connectable="0" parent="499">
                    <mxGeometry x="-0.1427" relative="1" as="geometry">
                        <mxPoint as="offset"/>
                    </mxGeometry>
                </mxCell>
                <mxCell id="497" value="Possui" style="shape=rhombus;perimeter=rhombusPerimeter;whiteSpace=wrap;html=1;align=center;" vertex="1" parent="1">
                    <mxGeometry x="312" y="561" width="120" height="60" as="geometry"/>
                </mxCell>
                <mxCell id="498" value="Possui" style="shape=rhombus;perimeter=rhombusPerimeter;whiteSpace=wrap;html=1;align=center;" vertex="1" parent="1">
                    <mxGeometry x="694" y="562" width="120" height="60" as="geometry"/>
                </mxCell>
                <mxCell id="505" value="Protocolo" style="ellipse;whiteSpace=wrap;html=1;align=center;" vertex="1" parent="1">
                    <mxGeometry x="405.0000000000002" y="486" width="100" height="40" as="geometry"/>
                </mxCell>
                <mxCell id="509" style="edgeStyle=none;html=1;endArrow=none;endFill=0;" edge="1" parent="1" source="508" target="465">
                    <mxGeometry relative="1" as="geometry"/>
                </mxCell>
                <mxCell id="508" value="Nome" style="ellipse;whiteSpace=wrap;html=1;align=center;" vertex="1" parent="1">
                    <mxGeometry x="-352" y="608" width="100" height="40" as="geometry"/>
                </mxCell>
                <mxCell id="511" style="edgeStyle=none;html=1;endArrow=none;endFill=0;" edge="1" parent="1" source="510" target="465">
                    <mxGeometry relative="1" as="geometry"/>
                </mxCell>
                <mxCell id="510" value="CNPJ" style="ellipse;whiteSpace=wrap;html=1;align=center;" vertex="1" parent="1">
                    <mxGeometry x="-311" y="684" width="100" height="40" as="geometry"/>
                </mxCell>
                <mxCell id="518" value="Aluguel" style="shape=table;startSize=30;container=1;collapsible=1;childLayout=tableLayout;fixedRows=1;rowLines=0;fontStyle=1;align=center;resizeLast=1;" vertex="1" parent="1">
                    <mxGeometry x="469.5" y="960" width="180" height="210" as="geometry"/>
                </mxCell>
                <mxCell id="519" value="" style="shape=tableRow;horizontal=0;startSize=0;swimlaneHead=0;swimlaneBody=0;fillColor=none;collapsible=0;dropTarget=0;points=[[0,0.5],[1,0.5]];portConstraint=eastwest;top=0;left=0;right=0;bottom=0;" vertex="1" parent="518">
                    <mxGeometry y="30" width="180" height="30" as="geometry"/>
                </mxCell>
                <mxCell id="520" value="PK" style="shape=partialRectangle;connectable=0;fillColor=none;top=0;left=0;bottom=0;right=0;fontStyle=1;overflow=hidden;" vertex="1" parent="519">
                    <mxGeometry width="60" height="30" as="geometry">
                        <mxRectangle width="60" height="30" as="alternateBounds"/>
                    </mxGeometry>
                </mxCell>
                <mxCell id="521" value="IdAluguel" style="shape=partialRectangle;connectable=0;fillColor=none;top=0;left=0;bottom=0;right=0;align=left;spacingLeft=6;fontStyle=5;overflow=hidden;" vertex="1" parent="519">
                    <mxGeometry x="60" width="120" height="30" as="geometry">
                        <mxRectangle width="120" height="30" as="alternateBounds"/>
                    </mxGeometry>
                </mxCell>
                <mxCell id="528" value="" style="shape=tableRow;horizontal=0;startSize=0;swimlaneHead=0;swimlaneBody=0;fillColor=none;collapsible=0;dropTarget=0;points=[[0,0.5],[1,0.5]];portConstraint=eastwest;top=0;left=0;right=0;bottom=0;" vertex="1" parent="518">
                    <mxGeometry y="60" width="180" height="30" as="geometry"/>
                </mxCell>
                <mxCell id="529" value="FK" style="shape=partialRectangle;connectable=0;fillColor=none;top=0;left=0;bottom=0;right=0;fontStyle=1;overflow=hidden;" vertex="1" parent="528">
                    <mxGeometry width="60" height="30" as="geometry">
                        <mxRectangle width="60" height="30" as="alternateBounds"/>
                    </mxGeometry>
                </mxCell>
                <mxCell id="530" value="IdVeiculo" style="shape=partialRectangle;connectable=0;fillColor=none;top=0;left=0;bottom=0;right=0;align=left;spacingLeft=6;fontStyle=1;overflow=hidden;" vertex="1" parent="528">
                    <mxGeometry x="60" width="120" height="30" as="geometry">
                        <mxRectangle width="120" height="30" as="alternateBounds"/>
                    </mxGeometry>
                </mxCell>
                <mxCell id="522" value="" style="shape=tableRow;horizontal=0;startSize=0;swimlaneHead=0;swimlaneBody=0;fillColor=none;collapsible=0;dropTarget=0;points=[[0,0.5],[1,0.5]];portConstraint=eastwest;top=0;left=0;right=0;bottom=1;" vertex="1" parent="518">
                    <mxGeometry y="90" width="180" height="30" as="geometry"/>
                </mxCell>
                <mxCell id="523" value="FK" style="shape=partialRectangle;connectable=0;fillColor=none;top=0;left=0;bottom=0;right=0;fontStyle=1;overflow=hidden;" vertex="1" parent="522">
                    <mxGeometry width="60" height="30" as="geometry">
                        <mxRectangle width="60" height="30" as="alternateBounds"/>
                    </mxGeometry>
                </mxCell>
                <mxCell id="524" value="IdCliente" style="shape=partialRectangle;connectable=0;fillColor=none;top=0;left=0;bottom=0;right=0;align=left;spacingLeft=6;fontStyle=1;overflow=hidden;" vertex="1" parent="522">
                    <mxGeometry x="60" width="120" height="30" as="geometry">
                        <mxRectangle width="120" height="30" as="alternateBounds"/>
                    </mxGeometry>
                </mxCell>
                <mxCell id="525" value="" style="shape=tableRow;horizontal=0;startSize=0;swimlaneHead=0;swimlaneBody=0;fillColor=none;collapsible=0;dropTarget=0;points=[[0,0.5],[1,0.5]];portConstraint=eastwest;top=0;left=0;right=0;bottom=0;" vertex="1" parent="518">
                    <mxGeometry y="120" width="180" height="30" as="geometry"/>
                </mxCell>
                <mxCell id="526" value="" style="shape=partialRectangle;connectable=0;fillColor=none;top=0;left=0;bottom=0;right=0;editable=1;overflow=hidden;" vertex="1" parent="525">
                    <mxGeometry width="60" height="30" as="geometry">
                        <mxRectangle width="60" height="30" as="alternateBounds"/>
                    </mxGeometry>
                </mxCell>
                <mxCell id="527" value="Protocolo" style="shape=partialRectangle;connectable=0;fillColor=none;top=0;left=0;bottom=0;right=0;align=left;spacingLeft=6;overflow=hidden;" vertex="1" parent="525">
                    <mxGeometry x="60" width="120" height="30" as="geometry">
                        <mxRectangle width="120" height="30" as="alternateBounds"/>
                    </mxGeometry>
                </mxCell>
                <mxCell id="535" value="" style="shape=tableRow;horizontal=0;startSize=0;swimlaneHead=0;swimlaneBody=0;fillColor=none;collapsible=0;dropTarget=0;points=[[0,0.5],[1,0.5]];portConstraint=eastwest;top=0;left=0;right=0;bottom=0;" vertex="1" parent="518">
                    <mxGeometry y="150" width="180" height="30" as="geometry"/>
                </mxCell>
                <mxCell id="536" value="" style="shape=partialRectangle;connectable=0;fillColor=none;top=0;left=0;bottom=0;right=0;editable=1;overflow=hidden;" vertex="1" parent="535">
                    <mxGeometry width="60" height="30" as="geometry">
                        <mxRectangle width="60" height="30" as="alternateBounds"/>
                    </mxGeometry>
                </mxCell>
                <mxCell id="537" value="DataRetirada" style="shape=partialRectangle;connectable=0;fillColor=none;top=0;left=0;bottom=0;right=0;align=left;spacingLeft=6;overflow=hidden;" vertex="1" parent="535">
                    <mxGeometry x="60" width="120" height="30" as="geometry">
                        <mxRectangle width="120" height="30" as="alternateBounds"/>
                    </mxGeometry>
                </mxCell>
                <mxCell id="538" value="" style="shape=tableRow;horizontal=0;startSize=0;swimlaneHead=0;swimlaneBody=0;fillColor=none;collapsible=0;dropTarget=0;points=[[0,0.5],[1,0.5]];portConstraint=eastwest;top=0;left=0;right=0;bottom=0;" vertex="1" parent="518">
                    <mxGeometry y="180" width="180" height="30" as="geometry"/>
                </mxCell>
                <mxCell id="539" value="" style="shape=partialRectangle;connectable=0;fillColor=none;top=0;left=0;bottom=0;right=0;editable=1;overflow=hidden;" vertex="1" parent="538">
                    <mxGeometry width="60" height="30" as="geometry">
                        <mxRectangle width="60" height="30" as="alternateBounds"/>
                    </mxGeometry>
                </mxCell>
                <mxCell id="540" value="DataDevolucao" style="shape=partialRectangle;connectable=0;fillColor=none;top=0;left=0;bottom=0;right=0;align=left;spacingLeft=6;overflow=hidden;" vertex="1" parent="538">
                    <mxGeometry x="60" width="120" height="30" as="geometry">
                        <mxRectangle width="120" height="30" as="alternateBounds"/>
                    </mxGeometry>
                </mxCell>
                <mxCell id="533" style="edgeStyle=none;html=1;endArrow=none;endFill=0;" edge="1" parent="1" source="531" target="496">
                    <mxGeometry relative="1" as="geometry"/>
                </mxCell>
                <mxCell id="531" value="DataRetirada" style="ellipse;whiteSpace=wrap;html=1;align=center;" vertex="1" parent="1">
                    <mxGeometry x="513.0000000000002" y="486" width="100" height="40" as="geometry"/>
                </mxCell>
                <mxCell id="534" style="edgeStyle=none;html=1;endArrow=none;endFill=0;" edge="1" parent="1" source="532" target="496">
                    <mxGeometry relative="1" as="geometry"/>
                </mxCell>
                <mxCell id="532" value="DataDevolucao" style="ellipse;whiteSpace=wrap;html=1;align=center;" vertex="1" parent="1">
                    <mxGeometry x="621.0000000000002" y="486" width="100" height="40" as="geometry"/>
                </mxCell>
                <mxCell id="544" value="" style="edgeStyle=entityRelationEdgeStyle;fontSize=12;html=1;endArrow=ERoneToMany;" edge="1" parent="1" source="404" target="512">
                    <mxGeometry width="100" height="100" relative="1" as="geometry">
                        <mxPoint x="-35.5" y="1083" as="sourcePoint"/>
                        <mxPoint x="64.5" y="983" as="targetPoint"/>
                    </mxGeometry>
                </mxCell>
                <mxCell id="545" value="" style="edgeStyle=entityRelationEdgeStyle;fontSize=12;html=1;endArrow=ERoneToMany;" edge="1" parent="1" source="253" target="528">
                    <mxGeometry width="100" height="100" relative="1" as="geometry">
                        <mxPoint x="482.5" y="1072" as="sourcePoint"/>
                        <mxPoint x="582.5" y="972" as="targetPoint"/>
                    </mxGeometry>
                </mxCell>
                <mxCell id="546" value="" style="edgeStyle=entityRelationEdgeStyle;fontSize=12;html=1;endArrow=ERoneToMany;" edge="1" parent="1" source="291" target="522">
                    <mxGeometry width="100" height="100" relative="1" as="geometry">
                        <mxPoint x="844.5" y="1063" as="sourcePoint"/>
                        <mxPoint x="944.5" y="963" as="targetPoint"/>
                    </mxGeometry>
                </mxCell>
                <mxCell id="548" value="Modelo" style="shape=table;startSize=30;container=1;collapsible=1;childLayout=tableLayout;fixedRows=1;rowLines=0;fontStyle=1;align=center;resizeLast=1;" vertex="1" parent="1">
                    <mxGeometry x="181.5" y="1286" width="180" height="90" as="geometry"/>
                </mxCell>
                <mxCell id="549" value="" style="shape=tableRow;horizontal=0;startSize=0;swimlaneHead=0;swimlaneBody=0;fillColor=none;collapsible=0;dropTarget=0;points=[[0,0.5],[1,0.5]];portConstraint=eastwest;top=0;left=0;right=0;bottom=1;" vertex="1" parent="548">
                    <mxGeometry y="30" width="180" height="30" as="geometry"/>
                </mxCell>
                <mxCell id="550" value="PK" style="shape=partialRectangle;connectable=0;fillColor=none;top=0;left=0;bottom=0;right=0;fontStyle=1;overflow=hidden;" vertex="1" parent="549">
                    <mxGeometry width="60" height="30" as="geometry">
                        <mxRectangle width="60" height="30" as="alternateBounds"/>
                    </mxGeometry>
                </mxCell>
                <mxCell id="551" value="IdModelo" style="shape=partialRectangle;connectable=0;fillColor=none;top=0;left=0;bottom=0;right=0;align=left;spacingLeft=6;fontStyle=5;overflow=hidden;" vertex="1" parent="549">
                    <mxGeometry x="60" width="120" height="30" as="geometry">
                        <mxRectangle width="120" height="30" as="alternateBounds"/>
                    </mxGeometry>
                </mxCell>
                <mxCell id="552" value="" style="shape=tableRow;horizontal=0;startSize=0;swimlaneHead=0;swimlaneBody=0;fillColor=none;collapsible=0;dropTarget=0;points=[[0,0.5],[1,0.5]];portConstraint=eastwest;top=0;left=0;right=0;bottom=0;" vertex="1" parent="548">
                    <mxGeometry y="60" width="180" height="30" as="geometry"/>
                </mxCell>
                <mxCell id="553" value="" style="shape=partialRectangle;connectable=0;fillColor=none;top=0;left=0;bottom=0;right=0;editable=1;overflow=hidden;" vertex="1" parent="552">
                    <mxGeometry width="60" height="30" as="geometry">
                        <mxRectangle width="60" height="30" as="alternateBounds"/>
                    </mxGeometry>
                </mxCell>
                <mxCell id="554" value="Nome" style="shape=partialRectangle;connectable=0;fillColor=none;top=0;left=0;bottom=0;right=0;align=left;spacingLeft=6;overflow=hidden;" vertex="1" parent="552">
                    <mxGeometry x="60" width="120" height="30" as="geometry">
                        <mxRectangle width="120" height="30" as="alternateBounds"/>
                    </mxGeometry>
                </mxCell>
                <mxCell id="558" value="Marca" style="shape=table;startSize=30;container=1;collapsible=1;childLayout=tableLayout;fixedRows=1;rowLines=0;fontStyle=1;align=center;resizeLast=1;" vertex="1" parent="1">
                    <mxGeometry x="171.5" y="1165" width="180" height="90" as="geometry"/>
                </mxCell>
                <mxCell id="559" value="" style="shape=tableRow;horizontal=0;startSize=0;swimlaneHead=0;swimlaneBody=0;fillColor=none;collapsible=0;dropTarget=0;points=[[0,0.5],[1,0.5]];portConstraint=eastwest;top=0;left=0;right=0;bottom=1;" vertex="1" parent="558">
                    <mxGeometry y="30" width="180" height="30" as="geometry"/>
                </mxCell>
                <mxCell id="560" value="PK" style="shape=partialRectangle;connectable=0;fillColor=none;top=0;left=0;bottom=0;right=0;fontStyle=1;overflow=hidden;" vertex="1" parent="559">
                    <mxGeometry width="60" height="30" as="geometry">
                        <mxRectangle width="60" height="30" as="alternateBounds"/>
                    </mxGeometry>
                </mxCell>
                <mxCell id="561" value="IdMarca" style="shape=partialRectangle;connectable=0;fillColor=none;top=0;left=0;bottom=0;right=0;align=left;spacingLeft=6;fontStyle=5;overflow=hidden;" vertex="1" parent="559">
                    <mxGeometry x="60" width="120" height="30" as="geometry">
                        <mxRectangle width="120" height="30" as="alternateBounds"/>
                    </mxGeometry>
                </mxCell>
                <mxCell id="562" value="" style="shape=tableRow;horizontal=0;startSize=0;swimlaneHead=0;swimlaneBody=0;fillColor=none;collapsible=0;dropTarget=0;points=[[0,0.5],[1,0.5]];portConstraint=eastwest;top=0;left=0;right=0;bottom=0;" vertex="1" parent="558">
                    <mxGeometry y="60" width="180" height="30" as="geometry"/>
                </mxCell>
                <mxCell id="563" value="" style="shape=partialRectangle;connectable=0;fillColor=none;top=0;left=0;bottom=0;right=0;editable=1;overflow=hidden;" vertex="1" parent="562">
                    <mxGeometry width="60" height="30" as="geometry">
                        <mxRectangle width="60" height="30" as="alternateBounds"/>
                    </mxGeometry>
                </mxCell>
                <mxCell id="564" value="Nome" style="shape=partialRectangle;connectable=0;fillColor=none;top=0;left=0;bottom=0;right=0;align=left;spacingLeft=6;overflow=hidden;" vertex="1" parent="562">
                    <mxGeometry x="60" width="120" height="30" as="geometry">
                        <mxRectangle width="120" height="30" as="alternateBounds"/>
                    </mxGeometry>
                </mxCell>
                <mxCell id="568" value="" style="edgeStyle=entityRelationEdgeStyle;fontSize=12;html=1;endArrow=ERoneToMany;" edge="1" parent="1" source="559" target="256">
                    <mxGeometry width="100" height="100" relative="1" as="geometry">
                        <mxPoint x="-267.5" y="794" as="sourcePoint"/>
                        <mxPoint x="59.5" y="787" as="targetPoint"/>
                    </mxGeometry>
                </mxCell>
                <mxCell id="569" value="" style="edgeStyle=entityRelationEdgeStyle;fontSize=12;html=1;endArrow=ERoneToMany;" edge="1" parent="1" source="549" target="515">
                    <mxGeometry width="100" height="100" relative="1" as="geometry">
                        <mxPoint x="684.5" y="896" as="sourcePoint"/>
                        <mxPoint x="784.5" y="796" as="targetPoint"/>
                    </mxGeometry>
                </mxCell>
                <mxCell id="580" value="Marca" style="shape=table;startSize=30;container=1;collapsible=0;childLayout=tableLayout;fontStyle=1;align=center;shadow=1;labelBackgroundColor=none;" vertex="1" parent="1">
                    <mxGeometry x="-146.5" y="1983" width="221" height="312" as="geometry"/>
                </mxCell>
                <mxCell id="581" value="" style="shape=tableRow;horizontal=0;startSize=0;swimlaneHead=0;swimlaneBody=0;top=0;left=0;bottom=0;right=0;collapsible=0;dropTarget=0;fillColor=none;points=[[0,0.5],[1,0.5]];portConstraint=eastwest;shadow=1;labelBackgroundColor=none;strokeColor=#050505;fontColor=#000000;" vertex="1" parent="580">
                    <mxGeometry y="30" width="221" height="57" as="geometry"/>
                </mxCell>
                <mxCell id="582" value="IdMarca" style="shape=partialRectangle;html=1;whiteSpace=wrap;connectable=0;top=0;left=0;bottom=0;right=0;overflow=hidden;shadow=1;labelBackgroundColor=none;" vertex="1" parent="581">
                    <mxGeometry width="80" height="57" as="geometry">
                        <mxRectangle width="80" height="57" as="alternateBounds"/>
                    </mxGeometry>
                </mxCell>
                <mxCell id="583" value="Nome" style="shape=partialRectangle;html=1;whiteSpace=wrap;connectable=0;top=0;left=0;bottom=0;right=0;overflow=hidden;shadow=1;labelBackgroundColor=none;" vertex="1" parent="581">
                    <mxGeometry x="80" width="141" height="57" as="geometry">
                        <mxRectangle width="141" height="57" as="alternateBounds"/>
                    </mxGeometry>
                </mxCell>
                <mxCell id="585" value="" style="shape=tableRow;horizontal=0;startSize=0;swimlaneHead=0;swimlaneBody=0;top=0;left=0;bottom=0;right=0;collapsible=0;dropTarget=0;fillColor=none;points=[[0,0.5],[1,0.5]];portConstraint=eastwest;shadow=1;labelBackgroundColor=none;strokeColor=#050505;fontColor=#000000;" vertex="1" parent="580">
                    <mxGeometry y="87" width="221" height="57" as="geometry"/>
                </mxCell>
                <mxCell id="586" value="1" style="shape=partialRectangle;html=1;whiteSpace=wrap;connectable=0;top=0;left=0;bottom=0;right=0;overflow=hidden;shadow=1;labelBackgroundColor=none;fillColor=#eeeeee;strokeColor=#36393d;fontColor=#252323;" vertex="1" parent="585">
                    <mxGeometry width="80" height="57" as="geometry">
                        <mxRectangle width="80" height="57" as="alternateBounds"/>
                    </mxGeometry>
                </mxCell>
                <mxCell id="587" value="Ford" style="shape=partialRectangle;html=1;whiteSpace=wrap;connectable=0;top=0;left=0;bottom=0;right=0;overflow=hidden;shadow=1;labelBackgroundColor=none;fillColor=#eeeeee;strokeColor=#36393d;fontColor=#252323;" vertex="1" parent="585">
                    <mxGeometry x="80" width="141" height="57" as="geometry">
                        <mxRectangle width="141" height="57" as="alternateBounds"/>
                    </mxGeometry>
                </mxCell>
                <mxCell id="589" value="" style="shape=tableRow;horizontal=0;startSize=0;swimlaneHead=0;swimlaneBody=0;top=0;left=0;bottom=0;right=0;collapsible=0;dropTarget=0;fillColor=none;points=[[0,0.5],[1,0.5]];portConstraint=eastwest;shadow=1;labelBackgroundColor=none;strokeColor=#050505;fontColor=#000000;" vertex="1" parent="580">
                    <mxGeometry y="144" width="221" height="56" as="geometry"/>
                </mxCell>
                <mxCell id="590" value="2" style="shape=partialRectangle;html=1;whiteSpace=wrap;connectable=0;top=0;left=0;bottom=0;right=0;overflow=hidden;shadow=1;labelBackgroundColor=none;fillColor=#eeeeee;strokeColor=#36393d;fontColor=#252323;" vertex="1" parent="589">
                    <mxGeometry width="80" height="56" as="geometry">
                        <mxRectangle width="80" height="56" as="alternateBounds"/>
                    </mxGeometry>
                </mxCell>
                <mxCell id="591" value="Mercedez" style="shape=partialRectangle;html=1;whiteSpace=wrap;connectable=0;top=0;left=0;bottom=0;right=0;overflow=hidden;shadow=1;labelBackgroundColor=none;fillColor=#eeeeee;strokeColor=#36393d;fontColor=#252323;" vertex="1" parent="589">
                    <mxGeometry x="80" width="141" height="56" as="geometry">
                        <mxRectangle width="141" height="56" as="alternateBounds"/>
                    </mxGeometry>
                </mxCell>
                <mxCell id="628" style="shape=tableRow;horizontal=0;startSize=0;swimlaneHead=0;swimlaneBody=0;top=0;left=0;bottom=0;right=0;collapsible=0;dropTarget=0;fillColor=none;points=[[0,0.5],[1,0.5]];portConstraint=eastwest;shadow=1;labelBackgroundColor=none;strokeColor=#050505;fontColor=#000000;" vertex="1" parent="580">
                    <mxGeometry y="200" width="221" height="56" as="geometry"/>
                </mxCell>
                <mxCell id="629" value="3" style="shape=partialRectangle;html=1;whiteSpace=wrap;connectable=0;top=0;left=0;bottom=0;right=0;overflow=hidden;shadow=1;labelBackgroundColor=none;fillColor=#eeeeee;strokeColor=#36393d;fontColor=#252323;" vertex="1" parent="628">
                    <mxGeometry width="80" height="56" as="geometry">
                        <mxRectangle width="80" height="56" as="alternateBounds"/>
                    </mxGeometry>
                </mxCell>
                <mxCell id="630" value="Audi" style="shape=partialRectangle;html=1;whiteSpace=wrap;connectable=0;top=0;left=0;bottom=0;right=0;overflow=hidden;shadow=1;labelBackgroundColor=none;fillColor=#eeeeee;strokeColor=#36393d;fontColor=#252323;" vertex="1" parent="628">
                    <mxGeometry x="80" width="141" height="56" as="geometry">
                        <mxRectangle width="141" height="56" as="alternateBounds"/>
                    </mxGeometry>
                </mxCell>
                <mxCell id="625" style="shape=tableRow;horizontal=0;startSize=0;swimlaneHead=0;swimlaneBody=0;top=0;left=0;bottom=0;right=0;collapsible=0;dropTarget=0;fillColor=none;points=[[0,0.5],[1,0.5]];portConstraint=eastwest;shadow=1;labelBackgroundColor=none;strokeColor=#050505;fontColor=#000000;" vertex="1" parent="580">
                    <mxGeometry y="256" width="221" height="56" as="geometry"/>
                </mxCell>
                <mxCell id="626" value="4" style="shape=partialRectangle;html=1;whiteSpace=wrap;connectable=0;top=0;left=0;bottom=0;right=0;overflow=hidden;shadow=1;labelBackgroundColor=none;fillColor=#eeeeee;strokeColor=#36393d;fontColor=#252323;" vertex="1" parent="625">
                    <mxGeometry width="80" height="56" as="geometry">
                        <mxRectangle width="80" height="56" as="alternateBounds"/>
                    </mxGeometry>
                </mxCell>
                <mxCell id="627" value="Fiat" style="shape=partialRectangle;html=1;whiteSpace=wrap;connectable=0;top=0;left=0;bottom=0;right=0;overflow=hidden;shadow=1;labelBackgroundColor=none;fillColor=#eeeeee;strokeColor=#36393d;fontColor=#252323;" vertex="1" parent="625">
                    <mxGeometry x="80" width="141" height="56" as="geometry">
                        <mxRectangle width="141" height="56" as="alternateBounds"/>
                    </mxGeometry>
                </mxCell>
                <mxCell id="593" value="Modelo" style="shape=table;startSize=30;container=1;collapsible=0;childLayout=tableLayout;fontStyle=1;align=center;shadow=1;labelBackgroundColor=none;" vertex="1" parent="1">
                    <mxGeometry x="107.5" y="1982" width="221" height="368" as="geometry"/>
                </mxCell>
                <mxCell id="594" value="" style="shape=tableRow;horizontal=0;startSize=0;swimlaneHead=0;swimlaneBody=0;top=0;left=0;bottom=0;right=0;collapsible=0;dropTarget=0;fillColor=none;points=[[0,0.5],[1,0.5]];portConstraint=eastwest;shadow=1;labelBackgroundColor=none;strokeColor=#050505;fontColor=#000000;" vertex="1" parent="593">
                    <mxGeometry y="30" width="221" height="57" as="geometry"/>
                </mxCell>
                <mxCell id="595" value="IdModelo" style="shape=partialRectangle;html=1;whiteSpace=wrap;connectable=0;top=0;left=0;bottom=0;right=0;overflow=hidden;shadow=1;labelBackgroundColor=none;" vertex="1" parent="594">
                    <mxGeometry width="80" height="57" as="geometry">
                        <mxRectangle width="80" height="57" as="alternateBounds"/>
                    </mxGeometry>
                </mxCell>
                <mxCell id="596" value="Nome" style="shape=partialRectangle;html=1;whiteSpace=wrap;connectable=0;top=0;left=0;bottom=0;right=0;overflow=hidden;shadow=1;labelBackgroundColor=none;" vertex="1" parent="594">
                    <mxGeometry x="80" width="141" height="57" as="geometry">
                        <mxRectangle width="141" height="57" as="alternateBounds"/>
                    </mxGeometry>
                </mxCell>
                <mxCell id="597" value="" style="shape=tableRow;horizontal=0;startSize=0;swimlaneHead=0;swimlaneBody=0;top=0;left=0;bottom=0;right=0;collapsible=0;dropTarget=0;fillColor=none;points=[[0,0.5],[1,0.5]];portConstraint=eastwest;shadow=1;labelBackgroundColor=none;strokeColor=#050505;fontColor=#000000;" vertex="1" parent="593">
                    <mxGeometry y="87" width="221" height="57" as="geometry"/>
                </mxCell>
                <mxCell id="598" value="1" style="shape=partialRectangle;html=1;whiteSpace=wrap;connectable=0;top=0;left=0;bottom=0;right=0;overflow=hidden;shadow=1;labelBackgroundColor=none;fillColor=#eeeeee;strokeColor=#36393d;fontColor=#252323;" vertex="1" parent="597">
                    <mxGeometry width="80" height="57" as="geometry">
                        <mxRectangle width="80" height="57" as="alternateBounds"/>
                    </mxGeometry>
                </mxCell>
                <mxCell id="599" value="Mustang" style="shape=partialRectangle;html=1;whiteSpace=wrap;connectable=0;top=0;left=0;bottom=0;right=0;overflow=hidden;shadow=1;labelBackgroundColor=none;fillColor=#eeeeee;strokeColor=#36393d;fontColor=#252323;" vertex="1" parent="597">
                    <mxGeometry x="80" width="141" height="57" as="geometry">
                        <mxRectangle width="141" height="57" as="alternateBounds"/>
                    </mxGeometry>
                </mxCell>
                <mxCell id="600" value="" style="shape=tableRow;horizontal=0;startSize=0;swimlaneHead=0;swimlaneBody=0;top=0;left=0;bottom=0;right=0;collapsible=0;dropTarget=0;fillColor=none;points=[[0,0.5],[1,0.5]];portConstraint=eastwest;shadow=1;labelBackgroundColor=none;strokeColor=#050505;fontColor=#000000;" vertex="1" parent="593">
                    <mxGeometry y="144" width="221" height="56" as="geometry"/>
                </mxCell>
                <mxCell id="601" value="2" style="shape=partialRectangle;html=1;whiteSpace=wrap;connectable=0;top=0;left=0;bottom=0;right=0;overflow=hidden;shadow=1;labelBackgroundColor=none;fillColor=#eeeeee;strokeColor=#36393d;fontColor=#252323;" vertex="1" parent="600">
                    <mxGeometry width="80" height="56" as="geometry">
                        <mxRectangle width="80" height="56" as="alternateBounds"/>
                    </mxGeometry>
                </mxCell>
                <mxCell id="602" value="Audi T.T" style="shape=partialRectangle;html=1;whiteSpace=wrap;connectable=0;top=0;left=0;bottom=0;right=0;overflow=hidden;shadow=1;labelBackgroundColor=none;fillColor=#eeeeee;strokeColor=#36393d;fontColor=#252323;" vertex="1" parent="600">
                    <mxGeometry x="80" width="141" height="56" as="geometry">
                        <mxRectangle width="141" height="56" as="alternateBounds"/>
                    </mxGeometry>
                </mxCell>
                <mxCell id="634" value="" style="shape=tableRow;horizontal=0;startSize=0;swimlaneHead=0;swimlaneBody=0;top=0;left=0;bottom=0;right=0;collapsible=0;dropTarget=0;fillColor=none;points=[[0,0.5],[1,0.5]];portConstraint=eastwest;shadow=1;labelBackgroundColor=none;strokeColor=#050505;fontColor=#000000;" vertex="1" parent="593">
                    <mxGeometry y="200" width="221" height="56" as="geometry"/>
                </mxCell>
                <mxCell id="635" value="3" style="shape=partialRectangle;html=1;whiteSpace=wrap;connectable=0;top=0;left=0;bottom=0;right=0;overflow=hidden;shadow=1;labelBackgroundColor=none;fillColor=#eeeeee;strokeColor=#36393d;fontColor=#252323;" vertex="1" parent="634">
                    <mxGeometry width="80" height="56" as="geometry">
                        <mxRectangle width="80" height="56" as="alternateBounds"/>
                    </mxGeometry>
                </mxCell>
                <mxCell id="636" value="Toro" style="shape=partialRectangle;html=1;whiteSpace=wrap;connectable=0;top=0;left=0;bottom=0;right=0;overflow=hidden;shadow=1;labelBackgroundColor=none;fillColor=#eeeeee;strokeColor=#36393d;fontColor=#252323;" vertex="1" parent="634">
                    <mxGeometry x="80" width="141" height="56" as="geometry">
                        <mxRectangle width="141" height="56" as="alternateBounds"/>
                    </mxGeometry>
                </mxCell>
                <mxCell id="631" value="" style="shape=tableRow;horizontal=0;startSize=0;swimlaneHead=0;swimlaneBody=0;top=0;left=0;bottom=0;right=0;collapsible=0;dropTarget=0;fillColor=none;points=[[0,0.5],[1,0.5]];portConstraint=eastwest;shadow=1;labelBackgroundColor=none;strokeColor=#050505;fontColor=#000000;" vertex="1" parent="593">
                    <mxGeometry y="256" width="221" height="56" as="geometry"/>
                </mxCell>
                <mxCell id="632" value="4" style="shape=partialRectangle;html=1;whiteSpace=wrap;connectable=0;top=0;left=0;bottom=0;right=0;overflow=hidden;shadow=1;labelBackgroundColor=none;fillColor=#eeeeee;strokeColor=#36393d;fontColor=#252323;" vertex="1" parent="631">
                    <mxGeometry width="80" height="56" as="geometry">
                        <mxRectangle width="80" height="56" as="alternateBounds"/>
                    </mxGeometry>
                </mxCell>
                <mxCell id="633" value="Classe A" style="shape=partialRectangle;html=1;whiteSpace=wrap;connectable=0;top=0;left=0;bottom=0;right=0;overflow=hidden;shadow=1;labelBackgroundColor=none;fillColor=#eeeeee;strokeColor=#36393d;fontColor=#252323;" vertex="1" parent="631">
                    <mxGeometry x="80" width="141" height="56" as="geometry">
                        <mxRectangle width="141" height="56" as="alternateBounds"/>
                    </mxGeometry>
                </mxCell>
                <mxCell id="637" value="" style="shape=tableRow;horizontal=0;startSize=0;swimlaneHead=0;swimlaneBody=0;top=0;left=0;bottom=0;right=0;collapsible=0;dropTarget=0;fillColor=none;points=[[0,0.5],[1,0.5]];portConstraint=eastwest;shadow=1;labelBackgroundColor=none;strokeColor=#050505;fontColor=#000000;" vertex="1" parent="593">
                    <mxGeometry y="312" width="221" height="56" as="geometry"/>
                </mxCell>
                <mxCell id="638" value="5" style="shape=partialRectangle;html=1;whiteSpace=wrap;connectable=0;top=0;left=0;bottom=0;right=0;overflow=hidden;shadow=1;labelBackgroundColor=none;fillColor=#eeeeee;strokeColor=#36393d;fontColor=#252323;" vertex="1" parent="637">
                    <mxGeometry width="80" height="56" as="geometry">
                        <mxRectangle width="80" height="56" as="alternateBounds"/>
                    </mxGeometry>
                </mxCell>
                <mxCell id="639" value="Ka+" style="shape=partialRectangle;html=1;whiteSpace=wrap;connectable=0;top=0;left=0;bottom=0;right=0;overflow=hidden;shadow=1;labelBackgroundColor=none;fillColor=#eeeeee;strokeColor=#36393d;fontColor=#252323;" vertex="1" parent="637">
                    <mxGeometry x="80" width="141" height="56" as="geometry">
                        <mxRectangle width="141" height="56" as="alternateBounds"/>
                    </mxGeometry>
                </mxCell>
                <mxCell id="612" value="Cliente" style="shape=table;startSize=30;container=1;collapsible=0;childLayout=tableLayout;fontStyle=1;align=center;shadow=1;labelBackgroundColor=none;" vertex="1" parent="1">
                    <mxGeometry x="812" y="1652" width="362" height="200" as="geometry"/>
                </mxCell>
                <mxCell id="613" value="" style="shape=tableRow;horizontal=0;startSize=0;swimlaneHead=0;swimlaneBody=0;top=0;left=0;bottom=0;right=0;collapsible=0;dropTarget=0;fillColor=none;points=[[0,0.5],[1,0.5]];portConstraint=eastwest;shadow=1;labelBackgroundColor=none;strokeColor=#050505;fontColor=#000000;" vertex="1" parent="612">
                    <mxGeometry y="30" width="362" height="57" as="geometry"/>
                </mxCell>
                <mxCell id="614" value="IdCliente" style="shape=partialRectangle;html=1;whiteSpace=wrap;connectable=0;top=0;left=0;bottom=0;right=0;overflow=hidden;shadow=1;labelBackgroundColor=none;" vertex="1" parent="613">
                    <mxGeometry width="80" height="57" as="geometry">
                        <mxRectangle width="80" height="57" as="alternateBounds"/>
                    </mxGeometry>
                </mxCell>
                <mxCell id="615" value="Nome" style="shape=partialRectangle;html=1;whiteSpace=wrap;connectable=0;top=0;left=0;bottom=0;right=0;overflow=hidden;shadow=1;labelBackgroundColor=none;" vertex="1" parent="613">
                    <mxGeometry x="80" width="141" height="57" as="geometry">
                        <mxRectangle width="141" height="57" as="alternateBounds"/>
                    </mxGeometry>
                </mxCell>
                <mxCell id="622" value="CPF" style="shape=partialRectangle;html=1;whiteSpace=wrap;connectable=0;top=0;left=0;bottom=0;right=0;overflow=hidden;shadow=1;labelBackgroundColor=none;" vertex="1" parent="613">
                    <mxGeometry x="221" width="141" height="57" as="geometry">
                        <mxRectangle width="141" height="57" as="alternateBounds"/>
                    </mxGeometry>
                </mxCell>
                <mxCell id="616" value="" style="shape=tableRow;horizontal=0;startSize=0;swimlaneHead=0;swimlaneBody=0;top=0;left=0;bottom=0;right=0;collapsible=0;dropTarget=0;fillColor=none;points=[[0,0.5],[1,0.5]];portConstraint=eastwest;shadow=1;labelBackgroundColor=none;strokeColor=#050505;fontColor=#000000;" vertex="1" parent="612">
                    <mxGeometry y="87" width="362" height="57" as="geometry"/>
                </mxCell>
                <mxCell id="617" value="1" style="shape=partialRectangle;html=1;whiteSpace=wrap;connectable=0;top=0;left=0;bottom=0;right=0;overflow=hidden;shadow=1;labelBackgroundColor=none;fillColor=#eeeeee;strokeColor=#36393d;fontColor=#252323;" vertex="1" parent="616">
                    <mxGeometry width="80" height="57" as="geometry">
                        <mxRectangle width="80" height="57" as="alternateBounds"/>
                    </mxGeometry>
                </mxCell>
                <mxCell id="618" value="Allan" style="shape=partialRectangle;html=1;whiteSpace=wrap;connectable=0;top=0;left=0;bottom=0;right=0;overflow=hidden;shadow=1;labelBackgroundColor=none;fillColor=#eeeeee;strokeColor=#36393d;fontColor=#252323;" vertex="1" parent="616">
                    <mxGeometry x="80" width="141" height="57" as="geometry">
                        <mxRectangle width="141" height="57" as="alternateBounds"/>
                    </mxGeometry>
                </mxCell>
                <mxCell id="623" value="12345678901" style="shape=partialRectangle;html=1;whiteSpace=wrap;connectable=0;top=0;left=0;bottom=0;right=0;overflow=hidden;shadow=1;labelBackgroundColor=none;fillColor=#eeeeee;strokeColor=#36393d;fontColor=#252323;" vertex="1" parent="616">
                    <mxGeometry x="221" width="141" height="57" as="geometry">
                        <mxRectangle width="141" height="57" as="alternateBounds"/>
                    </mxGeometry>
                </mxCell>
                <mxCell id="619" value="" style="shape=tableRow;horizontal=0;startSize=0;swimlaneHead=0;swimlaneBody=0;top=0;left=0;bottom=0;right=0;collapsible=0;dropTarget=0;fillColor=none;points=[[0,0.5],[1,0.5]];portConstraint=eastwest;shadow=1;labelBackgroundColor=none;strokeColor=#050505;fontColor=#000000;" vertex="1" parent="612">
                    <mxGeometry y="144" width="362" height="56" as="geometry"/>
                </mxCell>
                <mxCell id="620" value="2" style="shape=partialRectangle;html=1;whiteSpace=wrap;connectable=0;top=0;left=0;bottom=0;right=0;overflow=hidden;shadow=1;labelBackgroundColor=none;fillColor=#eeeeee;strokeColor=#36393d;fontColor=#252323;" vertex="1" parent="619">
                    <mxGeometry width="80" height="56" as="geometry">
                        <mxRectangle width="80" height="56" as="alternateBounds"/>
                    </mxGeometry>
                </mxCell>
                <mxCell id="621" value="Gustavo" style="shape=partialRectangle;html=1;whiteSpace=wrap;connectable=0;top=0;left=0;bottom=0;right=0;overflow=hidden;shadow=1;labelBackgroundColor=none;fillColor=#eeeeee;strokeColor=#36393d;fontColor=#252323;" vertex="1" parent="619">
                    <mxGeometry x="80" width="141" height="56" as="geometry">
                        <mxRectangle width="141" height="56" as="alternateBounds"/>
                    </mxGeometry>
                </mxCell>
                <mxCell id="624" value="10987654321" style="shape=partialRectangle;html=1;whiteSpace=wrap;connectable=0;top=0;left=0;bottom=0;right=0;overflow=hidden;shadow=1;labelBackgroundColor=none;fillColor=#eeeeee;strokeColor=#36393d;fontColor=#252323;" vertex="1" parent="619">
                    <mxGeometry x="221" width="141" height="56" as="geometry">
                        <mxRectangle width="141" height="56" as="alternateBounds"/>
                    </mxGeometry>
                </mxCell>
            </root>
        </mxGraphModel>
    </diagram>
</mxfile>